<?xml version="1.0" encoding="UTF-8"?>
<!DOCTYPE svg PUBLIC "-//W3C//DTD SVG 1.1//EN" "http://www.w3.org/Graphics/SVG/1.1/DTD/svg11.dtd">
<!-- Creator: CorelDRAW -->
<svg xmlns="http://www.w3.org/2000/svg" xml:space="preserve" width="42.3332mm" height="25.4mm" version="1.1" style="shape-rendering:geometricPrecision; text-rendering:geometricPrecision; image-rendering:optimizeQuality; fill-rule:evenodd; clip-rule:evenodd"
viewBox="0 0 4233.32 2540"
 xmlns:xlink="http://www.w3.org/1999/xlink"
 xmlns:xodm="http://www.corel.com/coreldraw/odm/2003">
 <defs>
  <style type="text/css">
   <![CDATA[
    .fil2 {fill:#2B2A29;fill-rule:nonzero}
    .fil1 {fill:#393185;fill-rule:nonzero}
    .fil0 {fill:#D9DADA;fill-rule:nonzero}
   ]]>
  </style>
 </defs>
 <g id="Ebene_x0020_1">
  <metadata id="CorelCorpID_0Corel-Layer"/>
  <path class="fil0" d="M286.92 165.39l-54.01 6.31c-1.78,-5.44 -4.24,-9.29 -7.32,-11.6 -3.13,-2.27 -7.31,-3.42 -12.51,-3.42 -6.21,0 -10.78,1.2 -13.67,3.66 -2.89,2.45 -4.33,5.58 -4.33,9.34 0,3.17 1.29,6.01 3.94,8.47 4.67,4.33 15.69,9.62 32.97,15.93 24.7,9.05 41.88,17.91 51.56,26.52 9.58,8.76 14.34,20.22 14.34,34.32 0,8.28 -1.83,15.84 -5.49,22.67 -3.7,6.79 -9.62,13.72 -17.81,20.8 4.96,5.44 8.67,10.93 11.08,16.46 2.35,5.54 3.56,11.89 3.56,19.01 0,9.78 -2.51,18.92 -7.56,27.44 -5.01,8.57 -12.95,15.36 -23.73,20.51 -10.83,5.1 -25.37,7.65 -43.61,7.65 -11.65,0 -22,-1.01 -31.1,-2.98 -9.05,-1.98 -16.51,-4.67 -22.43,-8.19 -5.87,-3.46 -10.68,-7.46 -14.49,-12.03 -3.8,-4.57 -6.64,-8.95 -8.56,-13.14 -1.88,-4.19 -3.57,-9.82 -5.06,-16.99l53.14 -5.59c3.37,6.98 7.22,12.08 11.51,15.36 4.33,3.22 9.62,4.86 15.88,4.86 6.45,0 11.31,-1.49 14.54,-4.53 3.22,-2.98 4.86,-6.73 4.86,-11.11 0,-3.81 -1.92,-7.61 -5.78,-11.46 -5.34,-5.3 -19.68,-12.56 -43.03,-21.81 -23.3,-9.29 -38.84,-18.48 -46.64,-27.58 -7.8,-9.14 -11.7,-18.82 -11.7,-29.07 0,-8.14 2.12,-15.55 6.31,-22.38 4.19,-6.84 11.36,-13.82 21.51,-20.99 -4.76,-5.25 -8.28,-10.4 -10.44,-15.5 -2.17,-5.05 -3.23,-10.73 -3.23,-17.04 0,-8.09 1.93,-15.5 5.73,-22.19 3.8,-6.74 8.71,-12.08 14.83,-16.12 6.11,-4.05 12.32,-6.98 18.58,-8.77 8.57,-2.45 19.54,-3.65 32.97,-3.65 17.91,0 31.34,1.63 40.19,4.86 8.86,3.27 16.13,8.28 21.76,15.02 5.63,6.78 10.06,15.78 13.24,26.95zm-107.63 55.65c-4.86,6.49 -7.32,11.74 -7.32,15.69 0,2.4 0.82,4.52 2.41,6.35 2.6,2.99 9.09,6.84 19.4,11.55l54.15 24.41c4.23,-6.4 6.35,-11.51 6.35,-15.36 0,-3.13 -1.25,-5.87 -3.8,-8.32 -3.66,-3.61 -14.49,-9.1 -32.49,-16.61 -18.01,-7.46 -30.91,-13.38 -38.7,-17.71z"/>
  <path class="fil0" d="M286.92 1520.05l-54.01 6.31c-1.78,-5.44 -4.24,-9.29 -7.32,-11.6 -3.13,-2.27 -7.31,-3.42 -12.51,-3.42 -6.21,0 -10.78,1.2 -13.67,3.66 -2.89,2.45 -4.33,5.58 -4.33,9.34 0,3.17 1.29,6.01 3.94,8.47 4.67,4.33 15.69,9.62 32.97,15.93 24.7,9.05 41.88,17.91 51.56,26.52 9.58,8.76 14.34,20.22 14.34,34.32 0,8.28 -1.83,15.84 -5.49,22.67 -3.7,6.79 -9.62,13.72 -17.81,20.8 4.96,5.44 8.67,10.93 11.08,16.46 2.35,5.54 3.56,11.89 3.56,19.01 0,9.78 -2.51,18.92 -7.56,27.44 -5.01,8.57 -12.95,15.36 -23.73,20.51 -10.83,5.1 -25.37,7.65 -43.61,7.65 -11.65,0 -22,-1.01 -31.1,-2.98 -9.05,-1.98 -16.51,-4.67 -22.43,-8.19 -5.87,-3.46 -10.68,-7.46 -14.49,-12.03 -3.8,-4.57 -6.64,-8.95 -8.56,-13.14 -1.88,-4.19 -3.57,-9.82 -5.06,-16.99l53.14 -5.59c3.37,6.98 7.22,12.08 11.51,15.36 4.33,3.22 9.62,4.86 15.88,4.86 6.45,0 11.31,-1.49 14.54,-4.53 3.22,-2.98 4.86,-6.73 4.86,-11.11 0,-3.81 -1.92,-7.61 -5.78,-11.46 -5.34,-5.3 -19.68,-12.56 -43.03,-21.81 -23.3,-9.29 -38.84,-18.48 -46.64,-27.58 -7.8,-9.14 -11.7,-18.82 -11.7,-29.07 0,-8.14 2.12,-15.55 6.31,-22.38 4.19,-6.84 11.36,-13.82 21.51,-20.99 -4.76,-5.25 -8.28,-10.4 -10.44,-15.5 -2.17,-5.05 -3.23,-10.73 -3.23,-17.04 0,-8.09 1.93,-15.5 5.73,-22.19 3.8,-6.74 8.71,-12.08 14.83,-16.12 6.11,-4.05 12.32,-6.98 18.58,-8.77 8.57,-2.45 19.54,-3.65 32.97,-3.65 17.91,0 31.34,1.63 40.19,4.86 8.86,3.27 16.13,8.28 21.76,15.02 5.63,6.78 10.06,15.78 13.24,26.95zm-107.63 55.65c-4.86,6.49 -7.32,11.74 -7.32,15.69 0,2.4 0.82,4.52 2.41,6.35 2.6,2.99 9.09,6.84 19.4,11.55l54.15 24.41c4.23,-6.4 6.35,-11.51 6.35,-15.36 0,-3.13 -1.25,-5.87 -3.8,-8.32 -3.66,-3.61 -14.49,-9.1 -32.49,-16.61 -18.01,-7.46 -30.91,-13.38 -38.7,-17.71z"/>
  <path class="fil0" d="M498.56 842.72l-54.01 6.31c-1.78,-5.44 -4.24,-9.29 -7.32,-11.6 -3.13,-2.27 -7.31,-3.42 -12.51,-3.42 -6.21,0 -10.78,1.2 -13.67,3.66 -2.89,2.45 -4.33,5.58 -4.33,9.34 0,3.17 1.29,6.01 3.94,8.47 4.67,4.33 15.69,9.62 32.97,15.93 24.7,9.05 41.88,17.91 51.56,26.52 9.58,8.76 14.34,20.22 14.34,34.32 0,8.28 -1.83,15.84 -5.49,22.67 -3.7,6.79 -9.62,13.72 -17.81,20.8 4.96,5.44 8.67,10.93 11.08,16.46 2.35,5.54 3.56,11.89 3.56,19.01 0,9.78 -2.51,18.92 -7.56,27.44 -5.01,8.57 -12.95,15.36 -23.73,20.51 -10.83,5.1 -25.37,7.65 -43.61,7.65 -11.65,0 -22,-1.01 -31.1,-2.98 -9.05,-1.98 -16.51,-4.67 -22.43,-8.19 -5.87,-3.46 -10.68,-7.46 -14.49,-12.03 -3.8,-4.57 -6.64,-8.95 -8.56,-13.14 -1.88,-4.19 -3.57,-9.82 -5.06,-16.99l53.14 -5.59c3.37,6.98 7.22,12.08 11.51,15.36 4.33,3.22 9.62,4.86 15.88,4.86 6.45,0 11.31,-1.49 14.54,-4.53 3.22,-2.98 4.86,-6.73 4.86,-11.11 0,-3.81 -1.92,-7.61 -5.78,-11.46 -5.34,-5.3 -19.68,-12.56 -43.03,-21.81 -23.3,-9.29 -38.84,-18.48 -46.64,-27.58 -7.8,-9.14 -11.7,-18.82 -11.7,-29.07 0,-8.14 2.12,-15.55 6.31,-22.38 4.19,-6.84 11.36,-13.82 21.51,-20.99 -4.76,-5.25 -8.28,-10.4 -10.44,-15.5 -2.17,-5.05 -3.23,-10.73 -3.23,-17.04 0,-8.09 1.93,-15.5 5.73,-22.19 3.8,-6.74 8.71,-12.08 14.83,-16.12 6.11,-4.05 12.32,-6.98 18.58,-8.77 8.57,-2.45 19.54,-3.65 32.97,-3.65 17.91,0 31.34,1.63 40.19,4.86 8.86,3.27 16.13,8.28 21.76,15.02 5.63,6.78 10.06,15.78 13.24,26.95zm-107.63 55.65c-4.86,6.49 -7.32,11.74 -7.32,15.69 0,2.4 0.82,4.52 2.41,6.35 2.6,2.99 9.09,6.84 19.4,11.55l54.15 24.41c4.23,-6.4 6.35,-11.51 6.35,-15.36 0,-3.13 -1.25,-5.87 -3.8,-8.32 -3.66,-3.61 -14.49,-9.1 -32.49,-16.61 -18.01,-7.46 -30.91,-13.38 -38.7,-17.71z"/>
  <path class="fil0" d="M498.56 2197.38l-54.01 6.31c-1.78,-5.44 -4.24,-9.29 -7.32,-11.6 -3.13,-2.27 -7.31,-3.42 -12.51,-3.42 -6.21,0 -10.78,1.2 -13.67,3.66 -2.89,2.45 -4.33,5.58 -4.33,9.34 0,3.17 1.29,6.01 3.94,8.47 4.67,4.33 15.69,9.62 32.97,15.93 24.7,9.05 41.88,17.91 51.56,26.52 9.58,8.76 14.34,20.22 14.34,34.32 0,8.28 -1.83,15.84 -5.49,22.67 -3.7,6.79 -9.62,13.72 -17.81,20.8 4.96,5.44 8.67,10.93 11.08,16.46 2.35,5.54 3.56,11.89 3.56,19.01 0,9.78 -2.51,18.92 -7.56,27.44 -5.01,8.57 -12.95,15.36 -23.73,20.51 -10.83,5.1 -25.37,7.65 -43.61,7.65 -11.65,0 -22,-1.01 -31.1,-2.98 -9.05,-1.98 -16.51,-4.67 -22.43,-8.19 -5.87,-3.46 -10.68,-7.46 -14.49,-12.03 -3.8,-4.57 -6.64,-8.95 -8.56,-13.14 -1.88,-4.19 -3.57,-9.82 -5.06,-16.99l53.14 -5.59c3.37,6.98 7.22,12.08 11.51,15.36 4.33,3.22 9.62,4.86 15.88,4.86 6.45,0 11.31,-1.49 14.54,-4.53 3.22,-2.98 4.86,-6.73 4.86,-11.11 0,-3.81 -1.92,-7.61 -5.78,-11.46 -5.34,-5.3 -19.68,-12.56 -43.03,-21.81 -23.3,-9.29 -38.84,-18.48 -46.64,-27.58 -7.8,-9.14 -11.7,-18.82 -11.7,-29.07 0,-8.14 2.12,-15.55 6.31,-22.38 4.19,-6.84 11.36,-13.82 21.51,-20.99 -4.76,-5.25 -8.28,-10.4 -10.44,-15.5 -2.17,-5.05 -3.23,-10.73 -3.23,-17.04 0,-8.09 1.93,-15.5 5.73,-22.19 3.8,-6.74 8.71,-12.08 14.83,-16.12 6.11,-4.05 12.32,-6.98 18.58,-8.77 8.57,-2.45 19.54,-3.65 32.97,-3.65 17.91,0 31.34,1.63 40.19,4.86 8.86,3.27 16.13,8.28 21.76,15.02 5.63,6.78 10.06,15.78 13.24,26.95zm-107.63 55.65c-4.86,6.49 -7.32,11.74 -7.32,15.69 0,2.4 0.82,4.52 2.41,6.35 2.6,2.99 9.09,6.84 19.4,11.55l54.15 24.41c4.23,-6.4 6.35,-11.51 6.35,-15.36 0,-3.13 -1.25,-5.87 -3.8,-8.32 -3.66,-3.61 -14.49,-9.1 -32.49,-16.61 -18.01,-7.46 -30.91,-13.38 -38.7,-17.71z"/>
  <path class="fil0" d="M921.89 842.72l-54.01 6.31c-1.78,-5.44 -4.24,-9.29 -7.32,-11.6 -3.13,-2.27 -7.31,-3.42 -12.51,-3.42 -6.21,0 -10.78,1.2 -13.67,3.66 -2.89,2.45 -4.33,5.58 -4.33,9.34 0,3.17 1.29,6.01 3.94,8.47 4.67,4.33 15.69,9.62 32.97,15.93 24.7,9.05 41.88,17.91 51.56,26.52 9.58,8.76 14.34,20.22 14.34,34.32 0,8.28 -1.83,15.84 -5.49,22.67 -3.7,6.79 -9.62,13.72 -17.81,20.8 4.96,5.44 8.67,10.93 11.08,16.46 2.35,5.54 3.56,11.89 3.56,19.01 0,9.78 -2.51,18.92 -7.56,27.44 -5.01,8.57 -12.95,15.36 -23.73,20.51 -10.83,5.1 -25.37,7.65 -43.61,7.65 -11.65,0 -22,-1.01 -31.1,-2.98 -9.05,-1.98 -16.51,-4.67 -22.43,-8.19 -5.87,-3.46 -10.68,-7.46 -14.49,-12.03 -3.8,-4.57 -6.64,-8.95 -8.56,-13.14 -1.88,-4.19 -3.57,-9.82 -5.06,-16.99l53.14 -5.59c3.37,6.98 7.22,12.08 11.51,15.36 4.33,3.22 9.62,4.86 15.88,4.86 6.45,0 11.31,-1.49 14.54,-4.53 3.22,-2.98 4.86,-6.73 4.86,-11.11 0,-3.81 -1.92,-7.61 -5.78,-11.46 -5.34,-5.3 -19.68,-12.56 -43.03,-21.81 -23.3,-9.29 -38.84,-18.48 -46.64,-27.58 -7.8,-9.14 -11.7,-18.82 -11.7,-29.07 0,-8.14 2.12,-15.55 6.31,-22.38 4.19,-6.84 11.36,-13.82 21.51,-20.99 -4.76,-5.25 -8.28,-10.4 -10.44,-15.5 -2.17,-5.05 -3.23,-10.73 -3.23,-17.04 0,-8.09 1.93,-15.5 5.73,-22.19 3.8,-6.74 8.71,-12.08 14.83,-16.12 6.11,-4.05 12.32,-6.98 18.58,-8.77 8.57,-2.45 19.54,-3.65 32.97,-3.65 17.91,0 31.34,1.63 40.19,4.86 8.86,3.27 16.13,8.28 21.76,15.02 5.63,6.78 10.06,15.78 13.24,26.95zm-107.63 55.65c-4.86,6.49 -7.32,11.74 -7.32,15.69 0,2.4 0.82,4.52 2.41,6.35 2.6,2.99 9.09,6.84 19.4,11.55l54.15 24.41c4.23,-6.4 6.35,-11.51 6.35,-15.36 0,-3.13 -1.25,-5.87 -3.8,-8.32 -3.66,-3.61 -14.49,-9.1 -32.49,-16.61 -18.01,-7.46 -30.91,-13.38 -38.7,-17.71z"/>
  <path class="fil0" d="M921.89 2197.38l-54.01 6.31c-1.78,-5.44 -4.24,-9.29 -7.32,-11.6 -3.13,-2.27 -7.31,-3.42 -12.51,-3.42 -6.21,0 -10.78,1.2 -13.67,3.66 -2.89,2.45 -4.33,5.58 -4.33,9.34 0,3.17 1.29,6.01 3.94,8.47 4.67,4.33 15.69,9.62 32.97,15.93 24.7,9.05 41.88,17.91 51.56,26.52 9.58,8.76 14.34,20.22 14.34,34.32 0,8.28 -1.83,15.84 -5.49,22.67 -3.7,6.79 -9.62,13.72 -17.81,20.8 4.96,5.44 8.67,10.93 11.08,16.46 2.35,5.54 3.56,11.89 3.56,19.01 0,9.78 -2.51,18.92 -7.56,27.44 -5.01,8.57 -12.95,15.36 -23.73,20.51 -10.83,5.1 -25.37,7.65 -43.61,7.65 -11.65,0 -22,-1.01 -31.1,-2.98 -9.05,-1.98 -16.51,-4.67 -22.43,-8.19 -5.87,-3.46 -10.68,-7.46 -14.49,-12.03 -3.8,-4.57 -6.64,-8.95 -8.56,-13.14 -1.88,-4.19 -3.57,-9.82 -5.06,-16.99l53.14 -5.59c3.37,6.98 7.22,12.08 11.51,15.36 4.33,3.22 9.62,4.86 15.88,4.86 6.45,0 11.31,-1.49 14.54,-4.53 3.22,-2.98 4.86,-6.73 4.86,-11.11 0,-3.81 -1.92,-7.61 -5.78,-11.46 -5.34,-5.3 -19.68,-12.56 -43.03,-21.81 -23.3,-9.29 -38.84,-18.48 -46.64,-27.58 -7.8,-9.14 -11.7,-18.82 -11.7,-29.07 0,-8.14 2.12,-15.55 6.31,-22.38 4.19,-6.84 11.36,-13.82 21.51,-20.99 -4.76,-5.25 -8.28,-10.4 -10.44,-15.5 -2.17,-5.05 -3.23,-10.73 -3.23,-17.04 0,-8.09 1.93,-15.5 5.73,-22.19 3.8,-6.74 8.71,-12.08 14.83,-16.12 6.11,-4.05 12.32,-6.98 18.58,-8.77 8.57,-2.45 19.54,-3.65 32.97,-3.65 17.91,0 31.34,1.63 40.19,4.86 8.86,3.27 16.13,8.28 21.76,15.02 5.63,6.78 10.06,15.78 13.24,26.95zm-107.63 55.65c-4.86,6.49 -7.32,11.74 -7.32,15.69 0,2.4 0.82,4.52 2.41,6.35 2.6,2.99 9.09,6.84 19.4,11.55l54.15 24.41c4.23,-6.4 6.35,-11.51 6.35,-15.36 0,-3.13 -1.25,-5.87 -3.8,-8.32 -3.66,-3.61 -14.49,-9.1 -32.49,-16.61 -18.01,-7.46 -30.91,-13.38 -38.7,-17.71z"/>
  <path class="fil0" d="M1345.22 842.72l-54.01 6.31c-1.78,-5.44 -4.24,-9.29 -7.32,-11.6 -3.13,-2.27 -7.31,-3.42 -12.51,-3.42 -6.21,0 -10.78,1.2 -13.67,3.66 -2.89,2.45 -4.33,5.58 -4.33,9.34 0,3.17 1.29,6.01 3.94,8.47 4.67,4.33 15.69,9.62 32.97,15.93 24.7,9.05 41.88,17.91 51.56,26.52 9.58,8.76 14.34,20.22 14.34,34.32 0,8.28 -1.83,15.84 -5.49,22.67 -3.7,6.79 -9.62,13.72 -17.81,20.8 4.96,5.44 8.67,10.93 11.08,16.46 2.35,5.54 3.56,11.89 3.56,19.01 0,9.78 -2.51,18.92 -7.56,27.44 -5.01,8.57 -12.95,15.36 -23.73,20.51 -10.83,5.1 -25.37,7.65 -43.61,7.65 -11.65,0 -22,-1.01 -31.1,-2.98 -9.05,-1.98 -16.51,-4.67 -22.43,-8.19 -5.87,-3.46 -10.68,-7.46 -14.49,-12.03 -3.8,-4.57 -6.64,-8.95 -8.56,-13.14 -1.88,-4.19 -3.57,-9.82 -5.06,-16.99l53.14 -5.59c3.37,6.98 7.22,12.08 11.51,15.36 4.33,3.22 9.62,4.86 15.88,4.86 6.45,0 11.31,-1.49 14.54,-4.53 3.22,-2.98 4.86,-6.73 4.86,-11.11 0,-3.81 -1.92,-7.61 -5.78,-11.46 -5.34,-5.3 -19.68,-12.56 -43.03,-21.81 -23.3,-9.29 -38.84,-18.48 -46.64,-27.58 -7.8,-9.14 -11.7,-18.82 -11.7,-29.07 0,-8.14 2.12,-15.55 6.31,-22.38 4.19,-6.84 11.36,-13.82 21.51,-20.99 -4.76,-5.25 -8.28,-10.4 -10.44,-15.5 -2.17,-5.05 -3.23,-10.73 -3.23,-17.04 0,-8.09 1.93,-15.5 5.73,-22.19 3.8,-6.74 8.71,-12.08 14.83,-16.12 6.11,-4.05 12.32,-6.98 18.58,-8.77 8.57,-2.45 19.54,-3.65 32.97,-3.65 17.91,0 31.34,1.63 40.19,4.86 8.86,3.27 16.13,8.28 21.76,15.02 5.63,6.78 10.06,15.78 13.24,26.95zm-107.63 55.65c-4.86,6.49 -7.32,11.74 -7.32,15.69 0,2.4 0.82,4.52 2.41,6.35 2.6,2.99 9.09,6.84 19.4,11.55l54.15 24.41c4.23,-6.4 6.35,-11.51 6.35,-15.36 0,-3.13 -1.25,-5.87 -3.8,-8.32 -3.66,-3.61 -14.49,-9.1 -32.49,-16.61 -18.01,-7.46 -30.91,-13.38 -38.7,-17.71z"/>
  <path class="fil0" d="M1345.22 2197.38l-54.01 6.31c-1.78,-5.44 -4.24,-9.29 -7.32,-11.6 -3.13,-2.27 -7.31,-3.42 -12.51,-3.42 -6.21,0 -10.78,1.2 -13.67,3.66 -2.89,2.45 -4.33,5.58 -4.33,9.34 0,3.17 1.29,6.01 3.94,8.47 4.67,4.33 15.69,9.62 32.97,15.93 24.7,9.05 41.88,17.91 51.56,26.52 9.58,8.76 14.34,20.22 14.34,34.32 0,8.28 -1.83,15.84 -5.49,22.67 -3.7,6.79 -9.62,13.72 -17.81,20.8 4.96,5.44 8.67,10.93 11.08,16.46 2.35,5.54 3.56,11.89 3.56,19.01 0,9.78 -2.51,18.92 -7.56,27.44 -5.01,8.57 -12.95,15.36 -23.73,20.51 -10.83,5.1 -25.37,7.65 -43.61,7.65 -11.65,0 -22,-1.01 -31.1,-2.98 -9.05,-1.98 -16.51,-4.67 -22.43,-8.19 -5.87,-3.46 -10.68,-7.46 -14.49,-12.03 -3.8,-4.57 -6.64,-8.95 -8.56,-13.14 -1.88,-4.19 -3.57,-9.82 -5.06,-16.99l53.14 -5.59c3.37,6.98 7.22,12.08 11.51,15.36 4.33,3.22 9.62,4.86 15.88,4.86 6.45,0 11.31,-1.49 14.54,-4.53 3.22,-2.98 4.86,-6.73 4.86,-11.11 0,-3.81 -1.92,-7.61 -5.78,-11.46 -5.34,-5.3 -19.68,-12.56 -43.03,-21.81 -23.3,-9.29 -38.84,-18.48 -46.64,-27.58 -7.8,-9.14 -11.7,-18.82 -11.7,-29.07 0,-8.14 2.12,-15.55 6.31,-22.38 4.19,-6.84 11.36,-13.82 21.51,-20.99 -4.76,-5.25 -8.28,-10.4 -10.44,-15.5 -2.17,-5.05 -3.23,-10.73 -3.23,-17.04 0,-8.09 1.93,-15.5 5.73,-22.19 3.8,-6.74 8.71,-12.08 14.83,-16.12 6.11,-4.05 12.32,-6.98 18.58,-8.77 8.57,-2.45 19.54,-3.65 32.97,-3.65 17.91,0 31.34,1.63 40.19,4.86 8.86,3.27 16.13,8.28 21.76,15.02 5.63,6.78 10.06,15.78 13.24,26.95zm-107.63 55.65c-4.86,6.49 -7.32,11.74 -7.32,15.69 0,2.4 0.82,4.52 2.41,6.35 2.6,2.99 9.09,6.84 19.4,11.55l54.15 24.41c4.23,-6.4 6.35,-11.51 6.35,-15.36 0,-3.13 -1.25,-5.87 -3.8,-8.32 -3.66,-3.61 -14.49,-9.1 -32.49,-16.61 -18.01,-7.46 -30.91,-13.38 -38.7,-17.71z"/>
  <path class="fil0" d="M1768.55 842.72l-54.01 6.31c-1.78,-5.44 -4.24,-9.29 -7.32,-11.6 -3.13,-2.27 -7.31,-3.42 -12.51,-3.42 -6.21,0 -10.78,1.2 -13.67,3.66 -2.89,2.45 -4.33,5.58 -4.33,9.34 0,3.17 1.29,6.01 3.94,8.47 4.67,4.33 15.69,9.62 32.97,15.93 24.7,9.05 41.88,17.91 51.56,26.52 9.58,8.76 14.34,20.22 14.34,34.32 0,8.28 -1.83,15.84 -5.49,22.67 -3.7,6.79 -9.62,13.72 -17.81,20.8 4.96,5.44 8.67,10.93 11.08,16.46 2.35,5.54 3.56,11.89 3.56,19.01 0,9.78 -2.51,18.92 -7.56,27.44 -5.01,8.57 -12.95,15.36 -23.73,20.51 -10.83,5.1 -25.37,7.65 -43.61,7.65 -11.65,0 -22,-1.01 -31.1,-2.98 -9.05,-1.98 -16.51,-4.67 -22.43,-8.19 -5.87,-3.46 -10.68,-7.46 -14.49,-12.03 -3.8,-4.57 -6.64,-8.95 -8.56,-13.14 -1.88,-4.19 -3.57,-9.82 -5.06,-16.99l53.14 -5.59c3.37,6.98 7.22,12.08 11.51,15.36 4.33,3.22 9.62,4.86 15.88,4.86 6.45,0 11.31,-1.49 14.54,-4.53 3.22,-2.98 4.86,-6.73 4.86,-11.11 0,-3.81 -1.92,-7.61 -5.78,-11.46 -5.34,-5.3 -19.68,-12.56 -43.03,-21.81 -23.3,-9.29 -38.84,-18.48 -46.64,-27.58 -7.8,-9.14 -11.7,-18.82 -11.7,-29.07 0,-8.14 2.12,-15.55 6.31,-22.38 4.19,-6.84 11.36,-13.82 21.51,-20.99 -4.76,-5.25 -8.28,-10.4 -10.44,-15.5 -2.17,-5.05 -3.23,-10.73 -3.23,-17.04 0,-8.09 1.93,-15.5 5.73,-22.19 3.8,-6.74 8.71,-12.08 14.83,-16.12 6.11,-4.05 12.32,-6.98 18.58,-8.77 8.57,-2.45 19.54,-3.65 32.97,-3.65 17.91,0 31.34,1.63 40.19,4.86 8.86,3.27 16.13,8.28 21.76,15.02 5.63,6.78 10.06,15.78 13.24,26.95zm-107.63 55.65c-4.86,6.49 -7.32,11.74 -7.32,15.69 0,2.4 0.82,4.52 2.41,6.35 2.6,2.99 9.09,6.84 19.4,11.55l54.15 24.41c4.23,-6.4 6.35,-11.51 6.35,-15.36 0,-3.13 -1.25,-5.87 -3.8,-8.32 -3.66,-3.61 -14.49,-9.1 -32.49,-16.61 -18.01,-7.46 -30.91,-13.38 -38.7,-17.71z"/>
  <path class="fil0" d="M1768.55 2197.38l-54.01 6.31c-1.78,-5.44 -4.24,-9.29 -7.32,-11.6 -3.13,-2.27 -7.31,-3.42 -12.51,-3.42 -6.21,0 -10.78,1.2 -13.67,3.66 -2.89,2.45 -4.33,5.58 -4.33,9.34 0,3.17 1.29,6.01 3.94,8.47 4.67,4.33 15.69,9.62 32.97,15.93 24.7,9.05 41.88,17.91 51.56,26.52 9.58,8.76 14.34,20.22 14.34,34.32 0,8.28 -1.83,15.84 -5.49,22.67 -3.7,6.79 -9.62,13.72 -17.81,20.8 4.96,5.44 8.67,10.93 11.08,16.46 2.35,5.54 3.56,11.89 3.56,19.01 0,9.78 -2.51,18.92 -7.56,27.44 -5.01,8.57 -12.95,15.36 -23.73,20.51 -10.83,5.1 -25.37,7.65 -43.61,7.65 -11.65,0 -22,-1.01 -31.1,-2.98 -9.05,-1.98 -16.51,-4.67 -22.43,-8.19 -5.87,-3.46 -10.68,-7.46 -14.49,-12.03 -3.8,-4.57 -6.64,-8.95 -8.56,-13.14 -1.88,-4.19 -3.57,-9.82 -5.06,-16.99l53.14 -5.59c3.37,6.98 7.22,12.08 11.51,15.36 4.33,3.22 9.62,4.86 15.88,4.86 6.45,0 11.31,-1.49 14.54,-4.53 3.22,-2.98 4.86,-6.73 4.86,-11.11 0,-3.81 -1.92,-7.61 -5.78,-11.46 -5.34,-5.3 -19.68,-12.56 -43.03,-21.81 -23.3,-9.29 -38.84,-18.48 -46.64,-27.58 -7.8,-9.14 -11.7,-18.82 -11.7,-29.07 0,-8.14 2.12,-15.55 6.31,-22.38 4.19,-6.84 11.36,-13.82 21.51,-20.99 -4.76,-5.25 -8.28,-10.4 -10.44,-15.5 -2.17,-5.05 -3.23,-10.73 -3.23,-17.04 0,-8.09 1.93,-15.5 5.73,-22.19 3.8,-6.74 8.71,-12.08 14.83,-16.12 6.11,-4.05 12.32,-6.98 18.58,-8.77 8.57,-2.45 19.54,-3.65 32.97,-3.65 17.91,0 31.34,1.63 40.19,4.86 8.86,3.27 16.13,8.28 21.76,15.02 5.63,6.78 10.06,15.78 13.24,26.95zm-107.63 55.65c-4.86,6.49 -7.32,11.74 -7.32,15.69 0,2.4 0.82,4.52 2.41,6.35 2.6,2.99 9.09,6.84 19.4,11.55l54.15 24.41c4.23,-6.4 6.35,-11.51 6.35,-15.36 0,-3.13 -1.25,-5.87 -3.8,-8.32 -3.66,-3.61 -14.49,-9.1 -32.49,-16.61 -18.01,-7.46 -30.91,-13.38 -38.7,-17.71z"/>
  <path class="fil0" d="M2191.88 842.72l-54.01 6.31c-1.78,-5.44 -4.24,-9.29 -7.32,-11.6 -3.13,-2.27 -7.31,-3.42 -12.51,-3.42 -6.21,0 -10.78,1.2 -13.67,3.66 -2.89,2.45 -4.33,5.58 -4.33,9.34 0,3.17 1.29,6.01 3.94,8.47 4.67,4.33 15.69,9.62 32.97,15.93 24.7,9.05 41.88,17.91 51.56,26.52 9.58,8.76 14.34,20.22 14.34,34.32 0,8.28 -1.83,15.84 -5.49,22.67 -3.7,6.79 -9.62,13.72 -17.81,20.8 4.96,5.44 8.67,10.93 11.08,16.46 2.35,5.54 3.56,11.89 3.56,19.01 0,9.78 -2.51,18.92 -7.56,27.44 -5.01,8.57 -12.95,15.36 -23.73,20.51 -10.83,5.1 -25.37,7.65 -43.61,7.65 -11.65,0 -22,-1.01 -31.1,-2.98 -9.05,-1.98 -16.51,-4.67 -22.43,-8.19 -5.87,-3.46 -10.68,-7.46 -14.49,-12.03 -3.8,-4.57 -6.64,-8.95 -8.56,-13.14 -1.88,-4.19 -3.57,-9.82 -5.06,-16.99l53.14 -5.59c3.37,6.98 7.22,12.08 11.51,15.36 4.33,3.22 9.62,4.86 15.88,4.86 6.45,0 11.31,-1.49 14.54,-4.53 3.22,-2.98 4.86,-6.73 4.86,-11.11 0,-3.81 -1.92,-7.61 -5.78,-11.46 -5.34,-5.3 -19.68,-12.56 -43.03,-21.81 -23.3,-9.29 -38.84,-18.48 -46.64,-27.58 -7.8,-9.14 -11.7,-18.82 -11.7,-29.07 0,-8.14 2.12,-15.55 6.31,-22.38 4.19,-6.84 11.36,-13.82 21.51,-20.99 -4.76,-5.25 -8.28,-10.4 -10.44,-15.5 -2.17,-5.05 -3.23,-10.73 -3.23,-17.04 0,-8.09 1.93,-15.5 5.73,-22.19 3.8,-6.74 8.71,-12.08 14.83,-16.12 6.11,-4.05 12.32,-6.98 18.58,-8.77 8.57,-2.45 19.54,-3.65 32.97,-3.65 17.91,0 31.34,1.63 40.19,4.86 8.86,3.27 16.13,8.28 21.76,15.02 5.63,6.78 10.06,15.78 13.24,26.95zm-107.63 55.65c-4.86,6.49 -7.32,11.74 -7.32,15.69 0,2.4 0.82,4.52 2.41,6.35 2.6,2.99 9.09,6.84 19.4,11.55l54.15 24.41c4.23,-6.4 6.35,-11.51 6.35,-15.36 0,-3.13 -1.25,-5.87 -3.8,-8.32 -3.66,-3.61 -14.49,-9.1 -32.49,-16.61 -18.01,-7.46 -30.91,-13.38 -38.7,-17.71z"/>
  <path class="fil0" d="M2191.88 2197.38l-54.01 6.31c-1.78,-5.44 -4.24,-9.29 -7.32,-11.6 -3.13,-2.27 -7.31,-3.42 -12.51,-3.42 -6.21,0 -10.78,1.2 -13.67,3.66 -2.89,2.45 -4.33,5.58 -4.33,9.34 0,3.17 1.29,6.01 3.94,8.47 4.67,4.33 15.69,9.62 32.97,15.93 24.7,9.05 41.88,17.91 51.56,26.52 9.58,8.76 14.34,20.22 14.34,34.32 0,8.28 -1.83,15.84 -5.49,22.67 -3.7,6.79 -9.62,13.72 -17.81,20.8 4.96,5.44 8.67,10.93 11.08,16.46 2.35,5.54 3.56,11.89 3.56,19.01 0,9.78 -2.51,18.92 -7.56,27.44 -5.01,8.57 -12.95,15.36 -23.73,20.51 -10.83,5.1 -25.37,7.65 -43.61,7.65 -11.65,0 -22,-1.01 -31.1,-2.98 -9.05,-1.98 -16.51,-4.67 -22.43,-8.19 -5.87,-3.46 -10.68,-7.46 -14.49,-12.03 -3.8,-4.57 -6.64,-8.95 -8.56,-13.14 -1.88,-4.19 -3.57,-9.82 -5.06,-16.99l53.14 -5.59c3.37,6.98 7.22,12.08 11.51,15.36 4.33,3.22 9.62,4.86 15.88,4.86 6.45,0 11.31,-1.49 14.54,-4.53 3.22,-2.98 4.86,-6.73 4.86,-11.11 0,-3.81 -1.92,-7.61 -5.78,-11.46 -5.34,-5.3 -19.68,-12.56 -43.03,-21.81 -23.3,-9.29 -38.84,-18.48 -46.64,-27.58 -7.8,-9.14 -11.7,-18.82 -11.7,-29.07 0,-8.14 2.12,-15.55 6.31,-22.38 4.19,-6.84 11.36,-13.82 21.51,-20.99 -4.76,-5.25 -8.28,-10.4 -10.44,-15.5 -2.17,-5.05 -3.23,-10.73 -3.23,-17.04 0,-8.09 1.93,-15.5 5.73,-22.19 3.8,-6.74 8.71,-12.08 14.83,-16.12 6.11,-4.05 12.32,-6.98 18.58,-8.77 8.57,-2.45 19.54,-3.65 32.97,-3.65 17.91,0 31.34,1.63 40.19,4.86 8.86,3.27 16.13,8.28 21.76,15.02 5.63,6.78 10.06,15.78 13.24,26.95zm-107.63 55.65c-4.86,6.49 -7.32,11.74 -7.32,15.69 0,2.4 0.82,4.52 2.41,6.35 2.6,2.99 9.09,6.84 19.4,11.55l54.15 24.41c4.23,-6.4 6.35,-11.51 6.35,-15.36 0,-3.13 -1.25,-5.87 -3.8,-8.32 -3.66,-3.61 -14.49,-9.1 -32.49,-16.61 -18.01,-7.46 -30.91,-13.38 -38.7,-17.71z"/>
  <path class="fil0" d="M2615.2 842.72l-54.01 6.31c-1.78,-5.44 -4.24,-9.29 -7.32,-11.6 -3.13,-2.27 -7.31,-3.42 -12.51,-3.42 -6.21,0 -10.78,1.2 -13.67,3.66 -2.89,2.45 -4.33,5.58 -4.33,9.34 0,3.17 1.29,6.01 3.94,8.47 4.67,4.33 15.69,9.62 32.97,15.93 24.7,9.05 41.88,17.91 51.56,26.52 9.58,8.76 14.34,20.22 14.34,34.32 0,8.28 -1.83,15.84 -5.49,22.67 -3.7,6.79 -9.62,13.72 -17.81,20.8 4.96,5.44 8.67,10.93 11.08,16.46 2.35,5.54 3.56,11.89 3.56,19.01 0,9.78 -2.51,18.92 -7.56,27.44 -5.01,8.57 -12.95,15.36 -23.73,20.51 -10.83,5.1 -25.37,7.65 -43.61,7.65 -11.65,0 -22,-1.01 -31.1,-2.98 -9.05,-1.98 -16.51,-4.67 -22.43,-8.19 -5.87,-3.46 -10.68,-7.46 -14.49,-12.03 -3.8,-4.57 -6.64,-8.95 -8.56,-13.14 -1.88,-4.19 -3.57,-9.82 -5.06,-16.99l53.14 -5.59c3.37,6.98 7.22,12.08 11.51,15.36 4.33,3.22 9.62,4.86 15.88,4.86 6.45,0 11.31,-1.49 14.54,-4.53 3.22,-2.98 4.86,-6.73 4.86,-11.11 0,-3.81 -1.92,-7.61 -5.78,-11.46 -5.34,-5.3 -19.68,-12.56 -43.03,-21.81 -23.3,-9.29 -38.84,-18.48 -46.64,-27.58 -7.8,-9.14 -11.7,-18.82 -11.7,-29.07 0,-8.14 2.12,-15.55 6.31,-22.38 4.19,-6.84 11.36,-13.82 21.51,-20.99 -4.76,-5.25 -8.28,-10.4 -10.44,-15.5 -2.17,-5.05 -3.23,-10.73 -3.23,-17.04 0,-8.09 1.93,-15.5 5.73,-22.19 3.8,-6.74 8.71,-12.08 14.83,-16.12 6.11,-4.05 12.32,-6.98 18.58,-8.77 8.57,-2.45 19.54,-3.65 32.97,-3.65 17.91,0 31.34,1.63 40.19,4.86 8.86,3.27 16.13,8.28 21.76,15.02 5.63,6.78 10.06,15.78 13.24,26.95zm-107.63 55.65c-4.86,6.49 -7.32,11.74 -7.32,15.69 0,2.4 0.82,4.52 2.41,6.35 2.6,2.99 9.09,6.84 19.4,11.55l54.15 24.41c4.23,-6.4 6.35,-11.51 6.35,-15.36 0,-3.13 -1.25,-5.87 -3.8,-8.32 -3.66,-3.61 -14.49,-9.1 -32.49,-16.61 -18.01,-7.46 -30.91,-13.38 -38.7,-17.71z"/>
  <path class="fil0" d="M2615.2 2197.38l-54.01 6.31c-1.78,-5.44 -4.24,-9.29 -7.32,-11.6 -3.13,-2.27 -7.31,-3.42 -12.51,-3.42 -6.21,0 -10.78,1.2 -13.67,3.66 -2.89,2.45 -4.33,5.58 -4.33,9.34 0,3.17 1.29,6.01 3.94,8.47 4.67,4.33 15.69,9.62 32.97,15.93 24.7,9.05 41.88,17.91 51.56,26.52 9.58,8.76 14.34,20.22 14.34,34.32 0,8.28 -1.83,15.84 -5.49,22.67 -3.7,6.79 -9.62,13.72 -17.81,20.8 4.96,5.44 8.67,10.93 11.08,16.46 2.35,5.54 3.56,11.89 3.56,19.01 0,9.78 -2.51,18.92 -7.56,27.44 -5.01,8.57 -12.95,15.36 -23.73,20.51 -10.83,5.1 -25.37,7.65 -43.61,7.65 -11.65,0 -22,-1.01 -31.1,-2.98 -9.05,-1.98 -16.51,-4.67 -22.43,-8.19 -5.87,-3.46 -10.68,-7.46 -14.49,-12.03 -3.8,-4.57 -6.64,-8.95 -8.56,-13.14 -1.88,-4.19 -3.57,-9.82 -5.06,-16.99l53.14 -5.59c3.37,6.98 7.22,12.08 11.51,15.36 4.33,3.22 9.62,4.86 15.88,4.86 6.45,0 11.31,-1.49 14.54,-4.53 3.22,-2.98 4.86,-6.73 4.86,-11.11 0,-3.81 -1.92,-7.61 -5.78,-11.46 -5.34,-5.3 -19.68,-12.56 -43.03,-21.81 -23.3,-9.29 -38.84,-18.48 -46.64,-27.58 -7.8,-9.14 -11.7,-18.82 -11.7,-29.07 0,-8.14 2.12,-15.55 6.31,-22.38 4.19,-6.84 11.36,-13.82 21.51,-20.99 -4.76,-5.25 -8.28,-10.4 -10.44,-15.5 -2.17,-5.05 -3.23,-10.73 -3.23,-17.04 0,-8.09 1.93,-15.5 5.73,-22.19 3.8,-6.74 8.71,-12.08 14.83,-16.12 6.11,-4.05 12.32,-6.98 18.58,-8.77 8.57,-2.45 19.54,-3.65 32.97,-3.65 17.91,0 31.34,1.63 40.19,4.86 8.86,3.27 16.13,8.28 21.76,15.02 5.63,6.78 10.06,15.78 13.24,26.95zm-107.63 55.65c-4.86,6.49 -7.32,11.74 -7.32,15.69 0,2.4 0.82,4.52 2.41,6.35 2.6,2.99 9.09,6.84 19.4,11.55l54.15 24.41c4.23,-6.4 6.35,-11.51 6.35,-15.36 0,-3.13 -1.25,-5.87 -3.8,-8.32 -3.66,-3.61 -14.49,-9.1 -32.49,-16.61 -18.01,-7.46 -30.91,-13.38 -38.7,-17.71z"/>
  <path class="fil0" d="M3038.53 842.72l-54.01 6.31c-1.78,-5.44 -4.24,-9.29 -7.32,-11.6 -3.13,-2.27 -7.31,-3.42 -12.51,-3.42 -6.21,0 -10.78,1.2 -13.67,3.66 -2.89,2.45 -4.33,5.58 -4.33,9.34 0,3.17 1.29,6.01 3.94,8.47 4.67,4.33 15.69,9.62 32.97,15.93 24.7,9.05 41.88,17.91 51.56,26.52 9.58,8.76 14.34,20.22 14.34,34.32 0,8.28 -1.83,15.84 -5.49,22.67 -3.7,6.79 -9.62,13.72 -17.81,20.8 4.96,5.44 8.67,10.93 11.08,16.46 2.35,5.54 3.56,11.89 3.56,19.01 0,9.78 -2.51,18.92 -7.56,27.44 -5.01,8.57 -12.95,15.36 -23.73,20.51 -10.83,5.1 -25.37,7.65 -43.61,7.65 -11.65,0 -22,-1.01 -31.1,-2.98 -9.05,-1.98 -16.51,-4.67 -22.43,-8.19 -5.87,-3.46 -10.68,-7.46 -14.49,-12.03 -3.8,-4.57 -6.64,-8.95 -8.56,-13.14 -1.88,-4.19 -3.57,-9.82 -5.06,-16.99l53.14 -5.59c3.37,6.98 7.22,12.08 11.51,15.36 4.33,3.22 9.62,4.86 15.88,4.86 6.45,0 11.31,-1.49 14.54,-4.53 3.22,-2.98 4.86,-6.73 4.86,-11.11 0,-3.81 -1.92,-7.61 -5.78,-11.46 -5.34,-5.3 -19.68,-12.56 -43.03,-21.81 -23.3,-9.29 -38.84,-18.48 -46.64,-27.58 -7.8,-9.14 -11.7,-18.82 -11.7,-29.07 0,-8.14 2.12,-15.55 6.31,-22.38 4.19,-6.84 11.36,-13.82 21.51,-20.99 -4.76,-5.25 -8.28,-10.4 -10.44,-15.5 -2.17,-5.05 -3.23,-10.73 -3.23,-17.04 0,-8.09 1.93,-15.5 5.73,-22.19 3.8,-6.74 8.71,-12.08 14.83,-16.12 6.11,-4.05 12.32,-6.98 18.58,-8.77 8.57,-2.45 19.54,-3.65 32.97,-3.65 17.91,0 31.34,1.63 40.19,4.86 8.86,3.27 16.13,8.28 21.76,15.02 5.63,6.78 10.06,15.78 13.24,26.95zm-107.63 55.65c-4.86,6.49 -7.32,11.74 -7.32,15.69 0,2.4 0.82,4.52 2.41,6.35 2.6,2.99 9.09,6.84 19.4,11.55l54.15 24.41c4.23,-6.4 6.35,-11.51 6.35,-15.36 0,-3.13 -1.25,-5.87 -3.8,-8.32 -3.66,-3.61 -14.49,-9.1 -32.49,-16.61 -18.01,-7.46 -30.91,-13.38 -38.7,-17.71z"/>
  <path class="fil0" d="M3038.53 2197.38l-54.01 6.31c-1.78,-5.44 -4.24,-9.29 -7.32,-11.6 -3.13,-2.27 -7.31,-3.42 -12.51,-3.42 -6.21,0 -10.78,1.2 -13.67,3.66 -2.89,2.45 -4.33,5.58 -4.33,9.34 0,3.17 1.29,6.01 3.94,8.47 4.67,4.33 15.69,9.62 32.97,15.93 24.7,9.05 41.88,17.91 51.56,26.52 9.58,8.76 14.34,20.22 14.34,34.32 0,8.28 -1.83,15.84 -5.49,22.67 -3.7,6.79 -9.62,13.72 -17.81,20.8 4.96,5.44 8.67,10.93 11.08,16.46 2.35,5.54 3.56,11.89 3.56,19.01 0,9.78 -2.51,18.92 -7.56,27.44 -5.01,8.57 -12.95,15.36 -23.73,20.51 -10.83,5.1 -25.37,7.65 -43.61,7.65 -11.65,0 -22,-1.01 -31.1,-2.98 -9.05,-1.98 -16.51,-4.67 -22.43,-8.19 -5.87,-3.46 -10.68,-7.46 -14.49,-12.03 -3.8,-4.57 -6.64,-8.95 -8.56,-13.14 -1.88,-4.19 -3.57,-9.82 -5.06,-16.99l53.14 -5.59c3.37,6.98 7.22,12.08 11.51,15.36 4.33,3.22 9.62,4.86 15.88,4.86 6.45,0 11.31,-1.49 14.54,-4.53 3.22,-2.98 4.86,-6.73 4.86,-11.11 0,-3.81 -1.92,-7.61 -5.78,-11.46 -5.34,-5.3 -19.68,-12.56 -43.03,-21.81 -23.3,-9.29 -38.84,-18.48 -46.64,-27.58 -7.8,-9.14 -11.7,-18.82 -11.7,-29.07 0,-8.14 2.12,-15.55 6.31,-22.38 4.19,-6.84 11.36,-13.82 21.51,-20.99 -4.76,-5.25 -8.28,-10.4 -10.44,-15.5 -2.17,-5.05 -3.23,-10.73 -3.23,-17.04 0,-8.09 1.93,-15.5 5.73,-22.19 3.8,-6.74 8.71,-12.08 14.83,-16.12 6.11,-4.05 12.32,-6.98 18.58,-8.77 8.57,-2.45 19.54,-3.65 32.97,-3.65 17.91,0 31.34,1.63 40.19,4.86 8.86,3.27 16.13,8.28 21.76,15.02 5.63,6.78 10.06,15.78 13.24,26.95zm-107.63 55.65c-4.86,6.49 -7.32,11.74 -7.32,15.69 0,2.4 0.82,4.52 2.41,6.35 2.6,2.99 9.09,6.84 19.4,11.55l54.15 24.41c4.23,-6.4 6.35,-11.51 6.35,-15.36 0,-3.13 -1.25,-5.87 -3.8,-8.32 -3.66,-3.61 -14.49,-9.1 -32.49,-16.61 -18.01,-7.46 -30.91,-13.38 -38.7,-17.71z"/>
  <path class="fil0" d="M3461.85 842.72l-54.01 6.31c-1.78,-5.44 -4.24,-9.29 -7.32,-11.6 -3.13,-2.27 -7.31,-3.42 -12.51,-3.42 -6.21,0 -10.78,1.2 -13.67,3.66 -2.89,2.45 -4.33,5.58 -4.33,9.34 0,3.17 1.29,6.01 3.94,8.47 4.67,4.33 15.69,9.62 32.97,15.93 24.7,9.05 41.88,17.91 51.56,26.52 9.58,8.76 14.34,20.22 14.34,34.32 0,8.28 -1.83,15.84 -5.49,22.67 -3.7,6.79 -9.62,13.72 -17.81,20.8 4.96,5.44 8.67,10.93 11.08,16.46 2.35,5.54 3.56,11.89 3.56,19.01 0,9.78 -2.51,18.92 -7.56,27.44 -5.01,8.57 -12.95,15.36 -23.73,20.51 -10.83,5.1 -25.37,7.65 -43.61,7.65 -11.65,0 -22,-1.01 -31.1,-2.98 -9.05,-1.98 -16.51,-4.67 -22.43,-8.19 -5.87,-3.46 -10.68,-7.46 -14.49,-12.03 -3.8,-4.57 -6.64,-8.95 -8.56,-13.14 -1.88,-4.19 -3.57,-9.82 -5.06,-16.99l53.14 -5.59c3.37,6.98 7.22,12.08 11.51,15.36 4.33,3.22 9.62,4.86 15.88,4.86 6.45,0 11.31,-1.49 14.54,-4.53 3.22,-2.98 4.86,-6.73 4.86,-11.11 0,-3.81 -1.92,-7.61 -5.78,-11.46 -5.34,-5.3 -19.68,-12.56 -43.03,-21.81 -23.3,-9.29 -38.84,-18.48 -46.64,-27.58 -7.8,-9.14 -11.7,-18.82 -11.7,-29.07 0,-8.14 2.12,-15.55 6.31,-22.38 4.19,-6.84 11.36,-13.82 21.51,-20.99 -4.76,-5.25 -8.28,-10.4 -10.44,-15.5 -2.17,-5.05 -3.23,-10.73 -3.23,-17.04 0,-8.09 1.93,-15.5 5.73,-22.19 3.8,-6.74 8.71,-12.08 14.83,-16.12 6.11,-4.05 12.32,-6.98 18.58,-8.77 8.57,-2.45 19.54,-3.65 32.97,-3.65 17.91,0 31.34,1.63 40.19,4.86 8.86,3.27 16.13,8.28 21.76,15.02 5.63,6.78 10.06,15.78 13.24,26.95zm-107.63 55.65c-4.86,6.49 -7.32,11.74 -7.32,15.69 0,2.4 0.82,4.52 2.41,6.35 2.6,2.99 9.09,6.84 19.4,11.55l54.15 24.41c4.23,-6.4 6.35,-11.51 6.35,-15.36 0,-3.13 -1.25,-5.87 -3.8,-8.32 -3.66,-3.61 -14.49,-9.1 -32.49,-16.61 -18.01,-7.46 -30.91,-13.38 -38.7,-17.71z"/>
  <path class="fil0" d="M3461.85 2197.38l-54.01 6.31c-1.78,-5.44 -4.24,-9.29 -7.32,-11.6 -3.13,-2.27 -7.31,-3.42 -12.51,-3.42 -6.21,0 -10.78,1.2 -13.67,3.66 -2.89,2.45 -4.33,5.58 -4.33,9.34 0,3.17 1.29,6.01 3.94,8.47 4.67,4.33 15.69,9.62 32.97,15.93 24.7,9.05 41.88,17.91 51.56,26.52 9.58,8.76 14.34,20.22 14.34,34.32 0,8.28 -1.83,15.84 -5.49,22.67 -3.7,6.79 -9.62,13.72 -17.81,20.8 4.96,5.44 8.67,10.93 11.08,16.46 2.35,5.54 3.56,11.89 3.56,19.01 0,9.78 -2.51,18.92 -7.56,27.44 -5.01,8.57 -12.95,15.36 -23.73,20.51 -10.83,5.1 -25.37,7.65 -43.61,7.65 -11.65,0 -22,-1.01 -31.1,-2.98 -9.05,-1.98 -16.51,-4.67 -22.43,-8.19 -5.87,-3.46 -10.68,-7.46 -14.49,-12.03 -3.8,-4.57 -6.64,-8.95 -8.56,-13.14 -1.88,-4.19 -3.57,-9.82 -5.06,-16.99l53.14 -5.59c3.37,6.98 7.22,12.08 11.51,15.36 4.33,3.22 9.62,4.86 15.88,4.86 6.45,0 11.31,-1.49 14.54,-4.53 3.22,-2.98 4.86,-6.73 4.86,-11.11 0,-3.81 -1.92,-7.61 -5.78,-11.46 -5.34,-5.3 -19.68,-12.56 -43.03,-21.81 -23.3,-9.29 -38.84,-18.48 -46.64,-27.58 -7.8,-9.14 -11.7,-18.82 -11.7,-29.07 0,-8.14 2.12,-15.55 6.31,-22.38 4.19,-6.84 11.36,-13.82 21.51,-20.99 -4.76,-5.25 -8.28,-10.4 -10.44,-15.5 -2.17,-5.05 -3.23,-10.73 -3.23,-17.04 0,-8.09 1.93,-15.5 5.73,-22.19 3.8,-6.74 8.71,-12.08 14.83,-16.12 6.11,-4.05 12.32,-6.98 18.58,-8.77 8.57,-2.45 19.54,-3.65 32.97,-3.65 17.91,0 31.34,1.63 40.19,4.86 8.86,3.27 16.13,8.28 21.76,15.02 5.63,6.78 10.06,15.78 13.24,26.95zm-107.63 55.65c-4.86,6.49 -7.32,11.74 -7.32,15.69 0,2.4 0.82,4.52 2.41,6.35 2.6,2.99 9.09,6.84 19.4,11.55l54.15 24.41c4.23,-6.4 6.35,-11.51 6.35,-15.36 0,-3.13 -1.25,-5.87 -3.8,-8.32 -3.66,-3.61 -14.49,-9.1 -32.49,-16.61 -18.01,-7.46 -30.91,-13.38 -38.7,-17.71z"/>
  <path class="fil0" d="M3885.19 842.72l-54.01 6.31c-1.78,-5.44 -4.24,-9.29 -7.32,-11.6 -3.13,-2.27 -7.31,-3.42 -12.51,-3.42 -6.21,0 -10.78,1.2 -13.67,3.66 -2.89,2.45 -4.33,5.58 -4.33,9.34 0,3.17 1.29,6.01 3.94,8.47 4.67,4.33 15.69,9.62 32.97,15.93 24.7,9.05 41.88,17.91 51.56,26.52 9.58,8.76 14.34,20.22 14.34,34.32 0,8.28 -1.83,15.84 -5.49,22.67 -3.7,6.79 -9.62,13.72 -17.81,20.8 4.96,5.44 8.67,10.93 11.08,16.46 2.35,5.54 3.56,11.89 3.56,19.01 0,9.78 -2.51,18.92 -7.56,27.44 -5.01,8.57 -12.95,15.36 -23.73,20.51 -10.83,5.1 -25.37,7.65 -43.61,7.65 -11.65,0 -22,-1.01 -31.1,-2.98 -9.05,-1.98 -16.51,-4.67 -22.43,-8.19 -5.87,-3.46 -10.68,-7.46 -14.49,-12.03 -3.8,-4.57 -6.64,-8.95 -8.56,-13.14 -1.88,-4.19 -3.57,-9.82 -5.06,-16.99l53.14 -5.59c3.37,6.98 7.22,12.08 11.51,15.36 4.33,3.22 9.62,4.86 15.88,4.86 6.45,0 11.31,-1.49 14.54,-4.53 3.22,-2.98 4.86,-6.73 4.86,-11.11 0,-3.81 -1.92,-7.61 -5.78,-11.46 -5.34,-5.3 -19.68,-12.56 -43.03,-21.81 -23.3,-9.29 -38.84,-18.48 -46.64,-27.58 -7.8,-9.14 -11.7,-18.82 -11.7,-29.07 0,-8.14 2.12,-15.55 6.31,-22.38 4.19,-6.84 11.36,-13.82 21.51,-20.99 -4.76,-5.25 -8.28,-10.4 -10.44,-15.5 -2.17,-5.05 -3.23,-10.73 -3.23,-17.04 0,-8.09 1.93,-15.5 5.73,-22.19 3.8,-6.74 8.71,-12.08 14.83,-16.12 6.11,-4.05 12.32,-6.98 18.58,-8.77 8.57,-2.45 19.54,-3.65 32.97,-3.65 17.91,0 31.34,1.63 40.19,4.86 8.86,3.27 16.13,8.28 21.76,15.02 5.63,6.78 10.06,15.78 13.24,26.95zm-107.63 55.65c-4.86,6.49 -7.32,11.74 -7.32,15.69 0,2.4 0.82,4.52 2.41,6.35 2.6,2.99 9.09,6.84 19.4,11.55l54.15 24.41c4.23,-6.4 6.35,-11.51 6.35,-15.36 0,-3.13 -1.25,-5.87 -3.8,-8.32 -3.66,-3.61 -14.49,-9.1 -32.49,-16.61 -18.01,-7.46 -30.91,-13.38 -38.7,-17.71z"/>
  <path class="fil0" d="M3885.19 2197.38l-54.01 6.31c-1.78,-5.44 -4.24,-9.29 -7.32,-11.6 -3.13,-2.27 -7.31,-3.42 -12.51,-3.42 -6.21,0 -10.78,1.2 -13.67,3.66 -2.89,2.45 -4.33,5.58 -4.33,9.34 0,3.17 1.29,6.01 3.94,8.47 4.67,4.33 15.69,9.62 32.97,15.93 24.7,9.05 41.88,17.91 51.56,26.52 9.58,8.76 14.34,20.22 14.34,34.32 0,8.28 -1.83,15.84 -5.49,22.67 -3.7,6.79 -9.62,13.72 -17.81,20.8 4.96,5.44 8.67,10.93 11.08,16.46 2.35,5.54 3.56,11.89 3.56,19.01 0,9.78 -2.51,18.92 -7.56,27.44 -5.01,8.57 -12.95,15.36 -23.73,20.51 -10.83,5.1 -25.37,7.65 -43.61,7.65 -11.65,0 -22,-1.01 -31.1,-2.98 -9.05,-1.98 -16.51,-4.67 -22.43,-8.19 -5.87,-3.46 -10.68,-7.46 -14.49,-12.03 -3.8,-4.57 -6.64,-8.95 -8.56,-13.14 -1.88,-4.19 -3.57,-9.82 -5.06,-16.99l53.14 -5.59c3.37,6.98 7.22,12.08 11.51,15.36 4.33,3.22 9.62,4.86 15.88,4.86 6.45,0 11.31,-1.49 14.54,-4.53 3.22,-2.98 4.86,-6.73 4.86,-11.11 0,-3.81 -1.92,-7.61 -5.78,-11.46 -5.34,-5.3 -19.68,-12.56 -43.03,-21.81 -23.3,-9.29 -38.84,-18.48 -46.64,-27.58 -7.8,-9.14 -11.7,-18.82 -11.7,-29.07 0,-8.14 2.12,-15.55 6.31,-22.38 4.19,-6.84 11.36,-13.82 21.51,-20.99 -4.76,-5.25 -8.28,-10.4 -10.44,-15.5 -2.17,-5.05 -3.23,-10.73 -3.23,-17.04 0,-8.09 1.93,-15.5 5.73,-22.19 3.8,-6.74 8.71,-12.08 14.83,-16.12 6.11,-4.05 12.32,-6.98 18.58,-8.77 8.57,-2.45 19.54,-3.65 32.97,-3.65 17.91,0 31.34,1.63 40.19,4.86 8.86,3.27 16.13,8.28 21.76,15.02 5.63,6.78 10.06,15.78 13.24,26.95zm-107.63 55.65c-4.86,6.49 -7.32,11.74 -7.32,15.69 0,2.4 0.82,4.52 2.41,6.35 2.6,2.99 9.09,6.84 19.4,11.55l54.15 24.41c4.23,-6.4 6.35,-11.51 6.35,-15.36 0,-3.13 -1.25,-5.87 -3.8,-8.32 -3.66,-3.61 -14.49,-9.1 -32.49,-16.61 -18.01,-7.46 -30.91,-13.38 -38.7,-17.71z"/>
  <path class="fil0" d="M710.25 165.39l-54.01 6.31c-1.78,-5.44 -4.24,-9.29 -7.32,-11.6 -3.13,-2.27 -7.31,-3.42 -12.51,-3.42 -6.21,0 -10.78,1.2 -13.67,3.66 -2.89,2.45 -4.33,5.58 -4.33,9.34 0,3.17 1.29,6.01 3.94,8.47 4.67,4.33 15.69,9.62 32.97,15.93 24.7,9.05 41.88,17.91 51.56,26.52 9.58,8.76 14.34,20.22 14.34,34.32 0,8.28 -1.83,15.84 -5.49,22.67 -3.7,6.79 -9.62,13.72 -17.81,20.8 4.96,5.44 8.67,10.93 11.08,16.46 2.35,5.54 3.56,11.89 3.56,19.01 0,9.78 -2.51,18.92 -7.56,27.44 -5.01,8.57 -12.95,15.36 -23.73,20.51 -10.83,5.1 -25.37,7.65 -43.61,7.65 -11.65,0 -22,-1.01 -31.1,-2.98 -9.05,-1.98 -16.51,-4.67 -22.43,-8.19 -5.87,-3.46 -10.68,-7.46 -14.49,-12.03 -3.8,-4.57 -6.64,-8.95 -8.56,-13.14 -1.88,-4.19 -3.57,-9.82 -5.06,-16.99l53.14 -5.59c3.37,6.98 7.22,12.08 11.51,15.36 4.33,3.22 9.62,4.86 15.88,4.86 6.45,0 11.31,-1.49 14.54,-4.53 3.22,-2.98 4.86,-6.73 4.86,-11.11 0,-3.81 -1.92,-7.61 -5.78,-11.46 -5.34,-5.3 -19.68,-12.56 -43.03,-21.81 -23.3,-9.29 -38.84,-18.48 -46.64,-27.58 -7.8,-9.14 -11.7,-18.82 -11.7,-29.07 0,-8.14 2.12,-15.55 6.31,-22.38 4.19,-6.84 11.36,-13.82 21.51,-20.99 -4.76,-5.25 -8.28,-10.4 -10.44,-15.5 -2.17,-5.05 -3.23,-10.73 -3.23,-17.04 0,-8.09 1.93,-15.5 5.73,-22.19 3.8,-6.74 8.71,-12.08 14.83,-16.12 6.11,-4.05 12.32,-6.98 18.58,-8.77 8.57,-2.45 19.54,-3.65 32.97,-3.65 17.91,0 31.34,1.63 40.19,4.86 8.86,3.27 16.13,8.28 21.76,15.02 5.63,6.78 10.06,15.78 13.24,26.95zm-107.63 55.65c-4.86,6.49 -7.32,11.74 -7.32,15.69 0,2.4 0.82,4.52 2.41,6.35 2.6,2.99 9.09,6.84 19.4,11.55l54.15 24.41c4.23,-6.4 6.35,-11.51 6.35,-15.36 0,-3.13 -1.25,-5.87 -3.8,-8.32 -3.66,-3.61 -14.49,-9.1 -32.49,-16.61 -18.01,-7.46 -30.91,-13.38 -38.7,-17.71z"/>
  <path class="fil0" d="M710.25 1520.05l-54.01 6.31c-1.78,-5.44 -4.24,-9.29 -7.32,-11.6 -3.13,-2.27 -7.31,-3.42 -12.51,-3.42 -6.21,0 -10.78,1.2 -13.67,3.66 -2.89,2.45 -4.33,5.58 -4.33,9.34 0,3.17 1.29,6.01 3.94,8.47 4.67,4.33 15.69,9.62 32.97,15.93 24.7,9.05 41.88,17.91 51.56,26.52 9.58,8.76 14.34,20.22 14.34,34.32 0,8.28 -1.83,15.84 -5.49,22.67 -3.7,6.79 -9.62,13.72 -17.81,20.8 4.96,5.44 8.67,10.93 11.08,16.46 2.35,5.54 3.56,11.89 3.56,19.01 0,9.78 -2.51,18.92 -7.56,27.44 -5.01,8.57 -12.95,15.36 -23.73,20.51 -10.83,5.1 -25.37,7.65 -43.61,7.65 -11.65,0 -22,-1.01 -31.1,-2.98 -9.05,-1.98 -16.51,-4.67 -22.43,-8.19 -5.87,-3.46 -10.68,-7.46 -14.49,-12.03 -3.8,-4.57 -6.64,-8.95 -8.56,-13.14 -1.88,-4.19 -3.57,-9.82 -5.06,-16.99l53.14 -5.59c3.37,6.98 7.22,12.08 11.51,15.36 4.33,3.22 9.62,4.86 15.88,4.86 6.45,0 11.31,-1.49 14.54,-4.53 3.22,-2.98 4.86,-6.73 4.86,-11.11 0,-3.81 -1.92,-7.61 -5.78,-11.46 -5.34,-5.3 -19.68,-12.56 -43.03,-21.81 -23.3,-9.29 -38.84,-18.48 -46.64,-27.58 -7.8,-9.14 -11.7,-18.82 -11.7,-29.07 0,-8.14 2.12,-15.55 6.31,-22.38 4.19,-6.84 11.36,-13.82 21.51,-20.99 -4.76,-5.25 -8.28,-10.4 -10.44,-15.5 -2.17,-5.05 -3.23,-10.73 -3.23,-17.04 0,-8.09 1.93,-15.5 5.73,-22.19 3.8,-6.74 8.71,-12.08 14.83,-16.12 6.11,-4.05 12.32,-6.98 18.58,-8.77 8.57,-2.45 19.54,-3.65 32.97,-3.65 17.91,0 31.34,1.63 40.19,4.86 8.86,3.27 16.13,8.28 21.76,15.02 5.63,6.78 10.06,15.78 13.24,26.95zm-107.63 55.65c-4.86,6.49 -7.32,11.74 -7.32,15.69 0,2.4 0.82,4.52 2.41,6.35 2.6,2.99 9.09,6.84 19.4,11.55l54.15 24.41c4.23,-6.4 6.35,-11.51 6.35,-15.36 0,-3.13 -1.25,-5.87 -3.8,-8.32 -3.66,-3.61 -14.49,-9.1 -32.49,-16.61 -18.01,-7.46 -30.91,-13.38 -38.7,-17.71z"/>
  <path class="fil0" d="M1133.58 165.39l-54.01 6.31c-1.78,-5.44 -4.24,-9.29 -7.32,-11.6 -3.13,-2.27 -7.31,-3.42 -12.51,-3.42 -6.21,0 -10.78,1.2 -13.67,3.66 -2.89,2.45 -4.33,5.58 -4.33,9.34 0,3.17 1.29,6.01 3.94,8.47 4.67,4.33 15.69,9.62 32.97,15.93 24.7,9.05 41.88,17.91 51.56,26.52 9.58,8.76 14.34,20.22 14.34,34.32 0,8.28 -1.83,15.84 -5.49,22.67 -3.7,6.79 -9.62,13.72 -17.81,20.8 4.96,5.44 8.67,10.93 11.08,16.46 2.35,5.54 3.56,11.89 3.56,19.01 0,9.78 -2.51,18.92 -7.56,27.44 -5.01,8.57 -12.95,15.36 -23.73,20.51 -10.83,5.1 -25.37,7.65 -43.61,7.65 -11.65,0 -22,-1.01 -31.1,-2.98 -9.05,-1.98 -16.51,-4.67 -22.43,-8.19 -5.87,-3.46 -10.68,-7.46 -14.49,-12.03 -3.8,-4.57 -6.64,-8.95 -8.56,-13.14 -1.88,-4.19 -3.57,-9.82 -5.06,-16.99l53.14 -5.59c3.37,6.98 7.22,12.08 11.51,15.36 4.33,3.22 9.62,4.86 15.88,4.86 6.45,0 11.31,-1.49 14.54,-4.53 3.22,-2.98 4.86,-6.73 4.86,-11.11 0,-3.81 -1.92,-7.61 -5.78,-11.46 -5.34,-5.3 -19.68,-12.56 -43.03,-21.81 -23.3,-9.29 -38.84,-18.48 -46.64,-27.58 -7.8,-9.14 -11.7,-18.82 -11.7,-29.07 0,-8.14 2.12,-15.55 6.31,-22.38 4.19,-6.84 11.36,-13.82 21.51,-20.99 -4.76,-5.25 -8.28,-10.4 -10.44,-15.5 -2.17,-5.05 -3.23,-10.73 -3.23,-17.04 0,-8.09 1.93,-15.5 5.73,-22.19 3.8,-6.74 8.71,-12.08 14.83,-16.12 6.11,-4.05 12.32,-6.98 18.58,-8.77 8.57,-2.45 19.54,-3.65 32.97,-3.65 17.91,0 31.34,1.63 40.19,4.86 8.86,3.27 16.13,8.28 21.76,15.02 5.63,6.78 10.06,15.78 13.24,26.95zm-107.63 55.65c-4.86,6.49 -7.32,11.74 -7.32,15.69 0,2.4 0.82,4.52 2.41,6.35 2.6,2.99 9.09,6.84 19.4,11.55l54.15 24.41c4.23,-6.4 6.35,-11.51 6.35,-15.36 0,-3.13 -1.25,-5.87 -3.8,-8.32 -3.66,-3.61 -14.49,-9.1 -32.49,-16.61 -18.01,-7.46 -30.91,-13.38 -38.7,-17.71z"/>
  <path class="fil0" d="M1133.58 1520.05l-54.01 6.31c-1.78,-5.44 -4.24,-9.29 -7.32,-11.6 -3.13,-2.27 -7.31,-3.42 -12.51,-3.42 -6.21,0 -10.78,1.2 -13.67,3.66 -2.89,2.45 -4.33,5.58 -4.33,9.34 0,3.17 1.29,6.01 3.94,8.47 4.67,4.33 15.69,9.62 32.97,15.93 24.7,9.05 41.88,17.91 51.56,26.52 9.58,8.76 14.34,20.22 14.34,34.32 0,8.28 -1.83,15.84 -5.49,22.67 -3.7,6.79 -9.62,13.72 -17.81,20.8 4.96,5.44 8.67,10.93 11.08,16.46 2.35,5.54 3.56,11.89 3.56,19.01 0,9.78 -2.51,18.92 -7.56,27.44 -5.01,8.57 -12.95,15.36 -23.73,20.51 -10.83,5.1 -25.37,7.65 -43.61,7.65 -11.65,0 -22,-1.01 -31.1,-2.98 -9.05,-1.98 -16.51,-4.67 -22.43,-8.19 -5.87,-3.46 -10.68,-7.46 -14.49,-12.03 -3.8,-4.57 -6.64,-8.95 -8.56,-13.14 -1.88,-4.19 -3.57,-9.82 -5.06,-16.99l53.14 -5.59c3.37,6.98 7.22,12.08 11.51,15.36 4.33,3.22 9.62,4.86 15.88,4.86 6.45,0 11.31,-1.49 14.54,-4.53 3.22,-2.98 4.86,-6.73 4.86,-11.11 0,-3.81 -1.92,-7.61 -5.78,-11.46 -5.34,-5.3 -19.68,-12.56 -43.03,-21.81 -23.3,-9.29 -38.84,-18.48 -46.64,-27.58 -7.8,-9.14 -11.7,-18.82 -11.7,-29.07 0,-8.14 2.12,-15.55 6.31,-22.38 4.19,-6.84 11.36,-13.82 21.51,-20.99 -4.76,-5.25 -8.28,-10.4 -10.44,-15.5 -2.17,-5.05 -3.23,-10.73 -3.23,-17.04 0,-8.09 1.93,-15.5 5.73,-22.19 3.8,-6.74 8.71,-12.08 14.83,-16.12 6.11,-4.05 12.32,-6.98 18.58,-8.77 8.57,-2.45 19.54,-3.65 32.97,-3.65 17.91,0 31.34,1.63 40.19,4.86 8.86,3.27 16.13,8.28 21.76,15.02 5.63,6.78 10.06,15.78 13.24,26.95zm-107.63 55.65c-4.86,6.49 -7.32,11.74 -7.32,15.69 0,2.4 0.82,4.52 2.41,6.35 2.6,2.99 9.09,6.84 19.4,11.55l54.15 24.41c4.23,-6.4 6.35,-11.51 6.35,-15.36 0,-3.13 -1.25,-5.87 -3.8,-8.32 -3.66,-3.61 -14.49,-9.1 -32.49,-16.61 -18.01,-7.46 -30.91,-13.38 -38.7,-17.71z"/>
  <path class="fil0" d="M1556.91 165.39l-54.01 6.31c-1.78,-5.44 -4.24,-9.29 -7.32,-11.6 -3.13,-2.27 -7.31,-3.42 -12.51,-3.42 -6.21,0 -10.78,1.2 -13.67,3.66 -2.89,2.45 -4.33,5.58 -4.33,9.34 0,3.17 1.29,6.01 3.94,8.47 4.67,4.33 15.69,9.62 32.97,15.93 24.7,9.05 41.88,17.91 51.56,26.52 9.58,8.76 14.34,20.22 14.34,34.32 0,8.28 -1.83,15.84 -5.49,22.67 -3.7,6.79 -9.62,13.72 -17.81,20.8 4.96,5.44 8.67,10.93 11.08,16.46 2.35,5.54 3.56,11.89 3.56,19.01 0,9.78 -2.51,18.92 -7.56,27.44 -5.01,8.57 -12.95,15.36 -23.73,20.51 -10.83,5.1 -25.37,7.65 -43.61,7.65 -11.65,0 -22,-1.01 -31.1,-2.98 -9.05,-1.98 -16.51,-4.67 -22.43,-8.19 -5.87,-3.46 -10.68,-7.46 -14.49,-12.03 -3.8,-4.57 -6.64,-8.95 -8.56,-13.14 -1.88,-4.19 -3.57,-9.82 -5.06,-16.99l53.14 -5.59c3.37,6.98 7.22,12.08 11.51,15.36 4.33,3.22 9.62,4.86 15.88,4.86 6.45,0 11.31,-1.49 14.54,-4.53 3.22,-2.98 4.86,-6.73 4.86,-11.11 0,-3.81 -1.92,-7.61 -5.78,-11.46 -5.34,-5.3 -19.68,-12.56 -43.03,-21.81 -23.3,-9.29 -38.84,-18.48 -46.64,-27.58 -7.8,-9.14 -11.7,-18.82 -11.7,-29.07 0,-8.14 2.12,-15.55 6.31,-22.38 4.19,-6.84 11.36,-13.82 21.51,-20.99 -4.76,-5.25 -8.28,-10.4 -10.44,-15.5 -2.17,-5.05 -3.23,-10.73 -3.23,-17.04 0,-8.09 1.93,-15.5 5.73,-22.19 3.8,-6.74 8.71,-12.08 14.83,-16.12 6.11,-4.05 12.32,-6.98 18.58,-8.77 8.57,-2.45 19.54,-3.65 32.97,-3.65 17.91,0 31.34,1.63 40.19,4.86 8.86,3.27 16.13,8.28 21.76,15.02 5.63,6.78 10.06,15.78 13.24,26.95zm-107.63 55.65c-4.86,6.49 -7.32,11.74 -7.32,15.69 0,2.4 0.82,4.52 2.41,6.35 2.6,2.99 9.09,6.84 19.4,11.55l54.15 24.41c4.23,-6.4 6.35,-11.51 6.35,-15.36 0,-3.13 -1.25,-5.87 -3.8,-8.32 -3.66,-3.61 -14.49,-9.1 -32.49,-16.61 -18.01,-7.46 -30.91,-13.38 -38.7,-17.71z"/>
  <path class="fil0" d="M1556.91 1520.05l-54.01 6.31c-1.78,-5.44 -4.24,-9.29 -7.32,-11.6 -3.13,-2.27 -7.31,-3.42 -12.51,-3.42 -6.21,0 -10.78,1.2 -13.67,3.66 -2.89,2.45 -4.33,5.58 -4.33,9.34 0,3.17 1.29,6.01 3.94,8.47 4.67,4.33 15.69,9.62 32.97,15.93 24.7,9.05 41.88,17.91 51.56,26.52 9.58,8.76 14.34,20.22 14.34,34.32 0,8.28 -1.83,15.84 -5.49,22.67 -3.7,6.79 -9.62,13.72 -17.81,20.8 4.96,5.44 8.67,10.93 11.08,16.46 2.35,5.54 3.56,11.89 3.56,19.01 0,9.78 -2.51,18.92 -7.56,27.44 -5.01,8.57 -12.95,15.36 -23.73,20.51 -10.83,5.1 -25.37,7.65 -43.61,7.65 -11.65,0 -22,-1.01 -31.1,-2.98 -9.05,-1.98 -16.51,-4.67 -22.43,-8.19 -5.87,-3.46 -10.68,-7.46 -14.49,-12.03 -3.8,-4.57 -6.64,-8.95 -8.56,-13.14 -1.88,-4.19 -3.57,-9.82 -5.06,-16.99l53.14 -5.59c3.37,6.98 7.22,12.08 11.51,15.36 4.33,3.22 9.62,4.86 15.88,4.86 6.45,0 11.31,-1.49 14.54,-4.53 3.22,-2.98 4.86,-6.73 4.86,-11.11 0,-3.81 -1.92,-7.61 -5.78,-11.46 -5.34,-5.3 -19.68,-12.56 -43.03,-21.81 -23.3,-9.29 -38.84,-18.48 -46.64,-27.58 -7.8,-9.14 -11.7,-18.82 -11.7,-29.07 0,-8.14 2.12,-15.55 6.31,-22.38 4.19,-6.84 11.36,-13.82 21.51,-20.99 -4.76,-5.25 -8.28,-10.4 -10.44,-15.5 -2.17,-5.05 -3.23,-10.73 -3.23,-17.04 0,-8.09 1.93,-15.5 5.73,-22.19 3.8,-6.74 8.71,-12.08 14.83,-16.12 6.11,-4.05 12.32,-6.98 18.58,-8.77 8.57,-2.45 19.54,-3.65 32.97,-3.65 17.91,0 31.34,1.63 40.19,4.86 8.86,3.27 16.13,8.28 21.76,15.02 5.63,6.78 10.06,15.78 13.24,26.95zm-107.63 55.65c-4.86,6.49 -7.32,11.74 -7.32,15.69 0,2.4 0.82,4.52 2.41,6.35 2.6,2.99 9.09,6.84 19.4,11.55l54.15 24.41c4.23,-6.4 6.35,-11.51 6.35,-15.36 0,-3.13 -1.25,-5.87 -3.8,-8.32 -3.66,-3.61 -14.49,-9.1 -32.49,-16.61 -18.01,-7.46 -30.91,-13.38 -38.7,-17.71z"/>
  <path class="fil0" d="M1980.24 165.39l-54.01 6.31c-1.78,-5.44 -4.24,-9.29 -7.32,-11.6 -3.13,-2.27 -7.31,-3.42 -12.51,-3.42 -6.21,0 -10.78,1.2 -13.67,3.66 -2.89,2.45 -4.33,5.58 -4.33,9.34 0,3.17 1.29,6.01 3.94,8.47 4.67,4.33 15.69,9.62 32.97,15.93 24.7,9.05 41.88,17.91 51.56,26.52 9.58,8.76 14.34,20.22 14.34,34.32 0,8.28 -1.83,15.84 -5.49,22.67 -3.7,6.79 -9.62,13.72 -17.81,20.8 4.96,5.44 8.67,10.93 11.08,16.46 2.35,5.54 3.56,11.89 3.56,19.01 0,9.78 -2.51,18.92 -7.56,27.44 -5.01,8.57 -12.95,15.36 -23.73,20.51 -10.83,5.1 -25.37,7.65 -43.61,7.65 -11.65,0 -22,-1.01 -31.1,-2.98 -9.05,-1.98 -16.51,-4.67 -22.43,-8.19 -5.87,-3.46 -10.68,-7.46 -14.49,-12.03 -3.8,-4.57 -6.64,-8.95 -8.56,-13.14 -1.88,-4.19 -3.57,-9.82 -5.06,-16.99l53.14 -5.59c3.37,6.98 7.22,12.08 11.51,15.36 4.33,3.22 9.62,4.86 15.88,4.86 6.45,0 11.31,-1.49 14.54,-4.53 3.22,-2.98 4.86,-6.73 4.86,-11.11 0,-3.81 -1.92,-7.61 -5.78,-11.46 -5.34,-5.3 -19.68,-12.56 -43.03,-21.81 -23.3,-9.29 -38.84,-18.48 -46.64,-27.58 -7.8,-9.14 -11.7,-18.82 -11.7,-29.07 0,-8.14 2.12,-15.55 6.31,-22.38 4.19,-6.84 11.36,-13.82 21.51,-20.99 -4.76,-5.25 -8.28,-10.4 -10.44,-15.5 -2.17,-5.05 -3.23,-10.73 -3.23,-17.04 0,-8.09 1.93,-15.5 5.73,-22.19 3.8,-6.74 8.71,-12.08 14.83,-16.12 6.11,-4.05 12.32,-6.98 18.58,-8.77 8.57,-2.45 19.54,-3.65 32.97,-3.65 17.91,0 31.34,1.63 40.19,4.86 8.86,3.27 16.13,8.28 21.76,15.02 5.63,6.78 10.06,15.78 13.24,26.95zm-107.63 55.65c-4.86,6.49 -7.32,11.74 -7.32,15.69 0,2.4 0.82,4.52 2.41,6.35 2.6,2.99 9.09,6.84 19.4,11.55l54.15 24.41c4.23,-6.4 6.35,-11.51 6.35,-15.36 0,-3.13 -1.25,-5.87 -3.8,-8.32 -3.66,-3.61 -14.49,-9.1 -32.49,-16.61 -18.01,-7.46 -30.91,-13.38 -38.7,-17.71z"/>
  <path class="fil0" d="M1980.24 1520.05l-54.01 6.31c-1.78,-5.44 -4.24,-9.29 -7.32,-11.6 -3.13,-2.27 -7.31,-3.42 -12.51,-3.42 -6.21,0 -10.78,1.2 -13.67,3.66 -2.89,2.45 -4.33,5.58 -4.33,9.34 0,3.17 1.29,6.01 3.94,8.47 4.67,4.33 15.69,9.62 32.97,15.93 24.7,9.05 41.88,17.91 51.56,26.52 9.58,8.76 14.34,20.22 14.34,34.32 0,8.28 -1.83,15.84 -5.49,22.67 -3.7,6.79 -9.62,13.72 -17.81,20.8 4.96,5.44 8.67,10.93 11.08,16.46 2.35,5.54 3.56,11.89 3.56,19.01 0,9.78 -2.51,18.92 -7.56,27.44 -5.01,8.57 -12.95,15.36 -23.73,20.51 -10.83,5.1 -25.37,7.65 -43.61,7.65 -11.65,0 -22,-1.01 -31.1,-2.98 -9.05,-1.98 -16.51,-4.67 -22.43,-8.19 -5.87,-3.46 -10.68,-7.46 -14.49,-12.03 -3.8,-4.57 -6.64,-8.95 -8.56,-13.14 -1.88,-4.19 -3.57,-9.82 -5.06,-16.99l53.14 -5.59c3.37,6.98 7.22,12.08 11.51,15.36 4.33,3.22 9.62,4.86 15.88,4.86 6.45,0 11.31,-1.49 14.54,-4.53 3.22,-2.98 4.86,-6.73 4.86,-11.11 0,-3.81 -1.92,-7.61 -5.78,-11.46 -5.34,-5.3 -19.68,-12.56 -43.03,-21.81 -23.3,-9.29 -38.84,-18.48 -46.64,-27.58 -7.8,-9.14 -11.7,-18.82 -11.7,-29.07 0,-8.14 2.12,-15.55 6.31,-22.38 4.19,-6.84 11.36,-13.82 21.51,-20.99 -4.76,-5.25 -8.28,-10.4 -10.44,-15.5 -2.17,-5.05 -3.23,-10.73 -3.23,-17.04 0,-8.09 1.93,-15.5 5.73,-22.19 3.8,-6.74 8.71,-12.08 14.83,-16.12 6.11,-4.05 12.32,-6.98 18.58,-8.77 8.57,-2.45 19.54,-3.65 32.97,-3.65 17.91,0 31.34,1.63 40.19,4.86 8.86,3.27 16.13,8.28 21.76,15.02 5.63,6.78 10.06,15.78 13.24,26.95zm-107.63 55.65c-4.86,6.49 -7.32,11.74 -7.32,15.69 0,2.4 0.82,4.52 2.41,6.35 2.6,2.99 9.09,6.84 19.4,11.55l54.15 24.41c4.23,-6.4 6.35,-11.51 6.35,-15.36 0,-3.13 -1.25,-5.87 -3.8,-8.32 -3.66,-3.61 -14.49,-9.1 -32.49,-16.61 -18.01,-7.46 -30.91,-13.38 -38.7,-17.71z"/>
  <path class="fil0" d="M2403.55 165.39l-54.01 6.31c-1.78,-5.44 -4.24,-9.29 -7.32,-11.6 -3.13,-2.27 -7.31,-3.42 -12.51,-3.42 -6.21,0 -10.78,1.2 -13.67,3.66 -2.89,2.45 -4.33,5.58 -4.33,9.34 0,3.17 1.29,6.01 3.94,8.47 4.67,4.33 15.69,9.62 32.97,15.93 24.7,9.05 41.88,17.91 51.56,26.52 9.58,8.76 14.34,20.22 14.34,34.32 0,8.28 -1.83,15.84 -5.49,22.67 -3.7,6.79 -9.62,13.72 -17.81,20.8 4.96,5.44 8.67,10.93 11.08,16.46 2.35,5.54 3.56,11.89 3.56,19.01 0,9.78 -2.51,18.92 -7.56,27.44 -5.01,8.57 -12.95,15.36 -23.73,20.51 -10.83,5.1 -25.37,7.65 -43.61,7.65 -11.65,0 -22,-1.01 -31.1,-2.98 -9.05,-1.98 -16.51,-4.67 -22.43,-8.19 -5.87,-3.46 -10.68,-7.46 -14.49,-12.03 -3.8,-4.57 -6.64,-8.95 -8.56,-13.14 -1.88,-4.19 -3.57,-9.82 -5.06,-16.99l53.14 -5.59c3.37,6.98 7.22,12.08 11.51,15.36 4.33,3.22 9.62,4.86 15.88,4.86 6.45,0 11.31,-1.49 14.54,-4.53 3.22,-2.98 4.86,-6.73 4.86,-11.11 0,-3.81 -1.92,-7.61 -5.78,-11.46 -5.34,-5.3 -19.68,-12.56 -43.03,-21.81 -23.3,-9.29 -38.84,-18.48 -46.64,-27.58 -7.8,-9.14 -11.7,-18.82 -11.7,-29.07 0,-8.14 2.12,-15.55 6.31,-22.38 4.19,-6.84 11.36,-13.82 21.51,-20.99 -4.76,-5.25 -8.28,-10.4 -10.44,-15.5 -2.17,-5.05 -3.23,-10.73 -3.23,-17.04 0,-8.09 1.93,-15.5 5.73,-22.19 3.8,-6.74 8.71,-12.08 14.83,-16.12 6.11,-4.05 12.32,-6.98 18.58,-8.77 8.57,-2.45 19.54,-3.65 32.97,-3.65 17.91,0 31.34,1.63 40.19,4.86 8.86,3.27 16.13,8.28 21.76,15.02 5.63,6.78 10.06,15.78 13.24,26.95zm-107.63 55.65c-4.86,6.49 -7.32,11.74 -7.32,15.69 0,2.4 0.82,4.52 2.41,6.35 2.6,2.99 9.09,6.84 19.4,11.55l54.15 24.41c4.23,-6.4 6.35,-11.51 6.35,-15.36 0,-3.13 -1.25,-5.87 -3.8,-8.32 -3.66,-3.61 -14.49,-9.1 -32.49,-16.61 -18.01,-7.46 -30.91,-13.38 -38.7,-17.71z"/>
  <path class="fil0" d="M2403.55 1520.05l-54.01 6.31c-1.78,-5.44 -4.24,-9.29 -7.32,-11.6 -3.13,-2.27 -7.31,-3.42 -12.51,-3.42 -6.21,0 -10.78,1.2 -13.67,3.66 -2.89,2.45 -4.33,5.58 -4.33,9.34 0,3.17 1.29,6.01 3.94,8.47 4.67,4.33 15.69,9.62 32.97,15.93 24.7,9.05 41.88,17.91 51.56,26.52 9.58,8.76 14.34,20.22 14.34,34.32 0,8.28 -1.83,15.84 -5.49,22.67 -3.7,6.79 -9.62,13.72 -17.81,20.8 4.96,5.44 8.67,10.93 11.08,16.46 2.35,5.54 3.56,11.89 3.56,19.01 0,9.78 -2.51,18.92 -7.56,27.44 -5.01,8.57 -12.95,15.36 -23.73,20.51 -10.83,5.1 -25.37,7.65 -43.61,7.65 -11.65,0 -22,-1.01 -31.1,-2.98 -9.05,-1.98 -16.51,-4.67 -22.43,-8.19 -5.87,-3.46 -10.68,-7.46 -14.49,-12.03 -3.8,-4.57 -6.64,-8.95 -8.56,-13.14 -1.88,-4.19 -3.57,-9.82 -5.06,-16.99l53.14 -5.59c3.37,6.98 7.22,12.08 11.51,15.36 4.33,3.22 9.62,4.86 15.88,4.86 6.45,0 11.31,-1.49 14.54,-4.53 3.22,-2.98 4.86,-6.73 4.86,-11.11 0,-3.81 -1.92,-7.61 -5.78,-11.46 -5.34,-5.3 -19.68,-12.56 -43.03,-21.81 -23.3,-9.29 -38.84,-18.48 -46.64,-27.58 -7.8,-9.14 -11.7,-18.82 -11.7,-29.07 0,-8.14 2.12,-15.55 6.31,-22.38 4.19,-6.84 11.36,-13.82 21.51,-20.99 -4.76,-5.25 -8.28,-10.4 -10.44,-15.5 -2.17,-5.05 -3.23,-10.73 -3.23,-17.04 0,-8.09 1.93,-15.5 5.73,-22.19 3.8,-6.74 8.71,-12.08 14.83,-16.12 6.11,-4.05 12.32,-6.98 18.58,-8.77 8.57,-2.45 19.54,-3.65 32.97,-3.65 17.91,0 31.34,1.63 40.19,4.86 8.86,3.27 16.13,8.28 21.76,15.02 5.63,6.78 10.06,15.78 13.24,26.95zm-107.63 55.65c-4.86,6.49 -7.32,11.74 -7.32,15.69 0,2.4 0.82,4.52 2.41,6.35 2.6,2.99 9.09,6.84 19.4,11.55l54.15 24.41c4.23,-6.4 6.35,-11.51 6.35,-15.36 0,-3.13 -1.25,-5.87 -3.8,-8.32 -3.66,-3.61 -14.49,-9.1 -32.49,-16.61 -18.01,-7.46 -30.91,-13.38 -38.7,-17.71z"/>
  <path class="fil0" d="M2826.89 165.39l-54.01 6.31c-1.78,-5.44 -4.24,-9.29 -7.32,-11.6 -3.13,-2.27 -7.31,-3.42 -12.51,-3.42 -6.21,0 -10.78,1.2 -13.67,3.66 -2.89,2.45 -4.33,5.58 -4.33,9.34 0,3.17 1.29,6.01 3.94,8.47 4.67,4.33 15.69,9.62 32.97,15.93 24.7,9.05 41.88,17.91 51.56,26.52 9.58,8.76 14.34,20.22 14.34,34.32 0,8.28 -1.83,15.84 -5.49,22.67 -3.7,6.79 -9.62,13.72 -17.81,20.8 4.96,5.44 8.67,10.93 11.08,16.46 2.35,5.54 3.56,11.89 3.56,19.01 0,9.78 -2.51,18.92 -7.56,27.44 -5.01,8.57 -12.95,15.36 -23.73,20.51 -10.83,5.1 -25.37,7.65 -43.61,7.65 -11.65,0 -22,-1.01 -31.1,-2.98 -9.05,-1.98 -16.51,-4.67 -22.43,-8.19 -5.87,-3.46 -10.68,-7.46 -14.49,-12.03 -3.8,-4.57 -6.64,-8.95 -8.56,-13.14 -1.88,-4.19 -3.57,-9.82 -5.06,-16.99l53.14 -5.59c3.37,6.98 7.22,12.08 11.51,15.36 4.33,3.22 9.62,4.86 15.88,4.86 6.45,0 11.31,-1.49 14.54,-4.53 3.22,-2.98 4.86,-6.73 4.86,-11.11 0,-3.81 -1.92,-7.61 -5.78,-11.46 -5.34,-5.3 -19.68,-12.56 -43.03,-21.81 -23.3,-9.29 -38.84,-18.48 -46.64,-27.58 -7.8,-9.14 -11.7,-18.82 -11.7,-29.07 0,-8.14 2.12,-15.55 6.31,-22.38 4.19,-6.84 11.36,-13.82 21.51,-20.99 -4.76,-5.25 -8.28,-10.4 -10.44,-15.5 -2.17,-5.05 -3.23,-10.73 -3.23,-17.04 0,-8.09 1.93,-15.5 5.73,-22.19 3.8,-6.74 8.71,-12.08 14.83,-16.12 6.11,-4.05 12.32,-6.98 18.58,-8.77 8.57,-2.45 19.54,-3.65 32.97,-3.65 17.91,0 31.34,1.63 40.19,4.86 8.86,3.27 16.13,8.28 21.76,15.02 5.63,6.78 10.06,15.78 13.24,26.95zm-107.63 55.65c-4.86,6.49 -7.32,11.74 -7.32,15.69 0,2.4 0.82,4.52 2.41,6.35 2.6,2.99 9.09,6.84 19.4,11.55l54.15 24.41c4.23,-6.4 6.35,-11.51 6.35,-15.36 0,-3.13 -1.25,-5.87 -3.8,-8.32 -3.66,-3.61 -14.49,-9.1 -32.49,-16.61 -18.01,-7.46 -30.91,-13.38 -38.7,-17.71z"/>
  <path class="fil0" d="M2826.89 1520.05l-54.01 6.31c-1.78,-5.44 -4.24,-9.29 -7.32,-11.6 -3.13,-2.27 -7.31,-3.42 -12.51,-3.42 -6.21,0 -10.78,1.2 -13.67,3.66 -2.89,2.45 -4.33,5.58 -4.33,9.34 0,3.17 1.29,6.01 3.94,8.47 4.67,4.33 15.69,9.62 32.97,15.93 24.7,9.05 41.88,17.91 51.56,26.52 9.58,8.76 14.34,20.22 14.34,34.32 0,8.28 -1.83,15.84 -5.49,22.67 -3.7,6.79 -9.62,13.72 -17.81,20.8 4.96,5.44 8.67,10.93 11.08,16.46 2.35,5.54 3.56,11.89 3.56,19.01 0,9.78 -2.51,18.92 -7.56,27.44 -5.01,8.57 -12.95,15.36 -23.73,20.51 -10.83,5.1 -25.37,7.65 -43.61,7.65 -11.65,0 -22,-1.01 -31.1,-2.98 -9.05,-1.98 -16.51,-4.67 -22.43,-8.19 -5.87,-3.46 -10.68,-7.46 -14.49,-12.03 -3.8,-4.57 -6.64,-8.95 -8.56,-13.14 -1.88,-4.19 -3.57,-9.82 -5.06,-16.99l53.14 -5.59c3.37,6.98 7.22,12.08 11.51,15.36 4.33,3.22 9.62,4.86 15.88,4.86 6.45,0 11.31,-1.49 14.54,-4.53 3.22,-2.98 4.86,-6.73 4.86,-11.11 0,-3.81 -1.92,-7.61 -5.78,-11.46 -5.34,-5.3 -19.68,-12.56 -43.03,-21.81 -23.3,-9.29 -38.84,-18.48 -46.64,-27.58 -7.8,-9.14 -11.7,-18.82 -11.7,-29.07 0,-8.14 2.12,-15.55 6.31,-22.38 4.19,-6.84 11.36,-13.82 21.51,-20.99 -4.76,-5.25 -8.28,-10.4 -10.44,-15.5 -2.17,-5.05 -3.23,-10.73 -3.23,-17.04 0,-8.09 1.93,-15.5 5.73,-22.19 3.8,-6.74 8.71,-12.08 14.83,-16.12 6.11,-4.05 12.32,-6.98 18.58,-8.77 8.57,-2.45 19.54,-3.65 32.97,-3.65 17.91,0 31.34,1.63 40.19,4.86 8.86,3.27 16.13,8.28 21.76,15.02 5.63,6.78 10.06,15.78 13.24,26.95zm-107.63 55.65c-4.86,6.49 -7.32,11.74 -7.32,15.69 0,2.4 0.82,4.52 2.41,6.35 2.6,2.99 9.09,6.84 19.4,11.55l54.15 24.41c4.23,-6.4 6.35,-11.51 6.35,-15.36 0,-3.13 -1.25,-5.87 -3.8,-8.32 -3.66,-3.61 -14.49,-9.1 -32.49,-16.61 -18.01,-7.46 -30.91,-13.38 -38.7,-17.71z"/>
  <path class="fil0" d="M3250.22 165.39l-54.01 6.31c-1.78,-5.44 -4.24,-9.29 -7.32,-11.6 -3.13,-2.27 -7.31,-3.42 -12.51,-3.42 -6.21,0 -10.78,1.2 -13.67,3.66 -2.89,2.45 -4.33,5.58 -4.33,9.34 0,3.17 1.29,6.01 3.94,8.47 4.67,4.33 15.69,9.62 32.97,15.93 24.7,9.05 41.88,17.91 51.56,26.52 9.58,8.76 14.34,20.22 14.34,34.32 0,8.28 -1.83,15.84 -5.49,22.67 -3.7,6.79 -9.62,13.72 -17.81,20.8 4.96,5.44 8.67,10.93 11.08,16.46 2.35,5.54 3.56,11.89 3.56,19.01 0,9.78 -2.51,18.92 -7.56,27.44 -5.01,8.57 -12.95,15.36 -23.73,20.51 -10.83,5.1 -25.37,7.65 -43.61,7.65 -11.65,0 -22,-1.01 -31.1,-2.98 -9.05,-1.98 -16.51,-4.67 -22.43,-8.19 -5.87,-3.46 -10.68,-7.46 -14.49,-12.03 -3.8,-4.57 -6.64,-8.95 -8.56,-13.14 -1.88,-4.19 -3.57,-9.82 -5.06,-16.99l53.14 -5.59c3.37,6.98 7.22,12.08 11.51,15.36 4.33,3.22 9.62,4.86 15.88,4.86 6.45,0 11.31,-1.49 14.54,-4.53 3.22,-2.98 4.86,-6.73 4.86,-11.11 0,-3.81 -1.92,-7.61 -5.78,-11.46 -5.34,-5.3 -19.68,-12.56 -43.03,-21.81 -23.3,-9.29 -38.84,-18.48 -46.64,-27.58 -7.8,-9.14 -11.7,-18.82 -11.7,-29.07 0,-8.14 2.12,-15.55 6.31,-22.38 4.19,-6.84 11.36,-13.82 21.51,-20.99 -4.76,-5.25 -8.28,-10.4 -10.44,-15.5 -2.17,-5.05 -3.23,-10.73 -3.23,-17.04 0,-8.09 1.93,-15.5 5.73,-22.19 3.8,-6.74 8.71,-12.08 14.83,-16.12 6.11,-4.05 12.32,-6.98 18.58,-8.77 8.57,-2.45 19.54,-3.65 32.97,-3.65 17.91,0 31.34,1.63 40.19,4.86 8.86,3.27 16.13,8.28 21.76,15.02 5.63,6.78 10.06,15.78 13.24,26.95zm-107.63 55.65c-4.86,6.49 -7.32,11.74 -7.32,15.69 0,2.4 0.82,4.52 2.41,6.35 2.6,2.99 9.09,6.84 19.4,11.55l54.15 24.41c4.23,-6.4 6.35,-11.51 6.35,-15.36 0,-3.13 -1.25,-5.87 -3.8,-8.32 -3.66,-3.61 -14.49,-9.1 -32.49,-16.61 -18.01,-7.46 -30.91,-13.38 -38.7,-17.71z"/>
  <path class="fil0" d="M3250.22 1520.05l-54.01 6.31c-1.78,-5.44 -4.24,-9.29 -7.32,-11.6 -3.13,-2.27 -7.31,-3.42 -12.51,-3.42 -6.21,0 -10.78,1.2 -13.67,3.66 -2.89,2.45 -4.33,5.58 -4.33,9.34 0,3.17 1.29,6.01 3.94,8.47 4.67,4.33 15.69,9.62 32.97,15.93 24.7,9.05 41.88,17.91 51.56,26.52 9.58,8.76 14.34,20.22 14.34,34.32 0,8.28 -1.83,15.84 -5.49,22.67 -3.7,6.79 -9.62,13.72 -17.81,20.8 4.96,5.44 8.67,10.93 11.08,16.46 2.35,5.54 3.56,11.89 3.56,19.01 0,9.78 -2.51,18.92 -7.56,27.44 -5.01,8.57 -12.95,15.36 -23.73,20.51 -10.83,5.1 -25.37,7.65 -43.61,7.65 -11.65,0 -22,-1.01 -31.1,-2.98 -9.05,-1.98 -16.51,-4.67 -22.43,-8.19 -5.87,-3.46 -10.68,-7.46 -14.49,-12.03 -3.8,-4.57 -6.64,-8.95 -8.56,-13.14 -1.88,-4.19 -3.57,-9.82 -5.06,-16.99l53.14 -5.59c3.37,6.98 7.22,12.08 11.51,15.36 4.33,3.22 9.62,4.86 15.88,4.86 6.45,0 11.31,-1.49 14.54,-4.53 3.22,-2.98 4.86,-6.73 4.86,-11.11 0,-3.81 -1.92,-7.61 -5.78,-11.46 -5.34,-5.3 -19.68,-12.56 -43.03,-21.81 -23.3,-9.29 -38.84,-18.48 -46.64,-27.58 -7.8,-9.14 -11.7,-18.82 -11.7,-29.07 0,-8.14 2.12,-15.55 6.31,-22.38 4.19,-6.84 11.36,-13.82 21.51,-20.99 -4.76,-5.25 -8.28,-10.4 -10.44,-15.5 -2.17,-5.05 -3.23,-10.73 -3.23,-17.04 0,-8.09 1.93,-15.5 5.73,-22.19 3.8,-6.74 8.71,-12.08 14.83,-16.12 6.11,-4.05 12.32,-6.98 18.58,-8.77 8.57,-2.45 19.54,-3.65 32.97,-3.65 17.91,0 31.34,1.63 40.19,4.86 8.86,3.27 16.13,8.28 21.76,15.02 5.63,6.78 10.06,15.78 13.24,26.95zm-107.63 55.65c-4.86,6.49 -7.32,11.74 -7.32,15.69 0,2.4 0.82,4.52 2.41,6.35 2.6,2.99 9.09,6.84 19.4,11.55l54.15 24.41c4.23,-6.4 6.35,-11.51 6.35,-15.36 0,-3.13 -1.25,-5.87 -3.8,-8.32 -3.66,-3.61 -14.49,-9.1 -32.49,-16.61 -18.01,-7.46 -30.91,-13.38 -38.7,-17.71z"/>
  <path class="fil0" d="M3673.55 165.39l-54.01 6.31c-1.78,-5.44 -4.24,-9.29 -7.32,-11.6 -3.13,-2.27 -7.31,-3.42 -12.51,-3.42 -6.21,0 -10.78,1.2 -13.67,3.66 -2.89,2.45 -4.33,5.58 -4.33,9.34 0,3.17 1.29,6.01 3.94,8.47 4.67,4.33 15.69,9.62 32.97,15.93 24.7,9.05 41.88,17.91 51.56,26.52 9.58,8.76 14.34,20.22 14.34,34.32 0,8.28 -1.83,15.84 -5.49,22.67 -3.7,6.79 -9.62,13.72 -17.81,20.8 4.96,5.44 8.67,10.93 11.08,16.46 2.35,5.54 3.56,11.89 3.56,19.01 0,9.78 -2.51,18.92 -7.56,27.44 -5.01,8.57 -12.95,15.36 -23.73,20.51 -10.83,5.1 -25.37,7.65 -43.61,7.65 -11.65,0 -22,-1.01 -31.1,-2.98 -9.05,-1.98 -16.51,-4.67 -22.43,-8.19 -5.87,-3.46 -10.68,-7.46 -14.49,-12.03 -3.8,-4.57 -6.64,-8.95 -8.56,-13.14 -1.88,-4.19 -3.57,-9.82 -5.06,-16.99l53.14 -5.59c3.37,6.98 7.22,12.08 11.51,15.36 4.33,3.22 9.62,4.86 15.88,4.86 6.45,0 11.31,-1.49 14.54,-4.53 3.22,-2.98 4.86,-6.73 4.86,-11.11 0,-3.81 -1.92,-7.61 -5.78,-11.46 -5.34,-5.3 -19.68,-12.56 -43.03,-21.81 -23.3,-9.29 -38.84,-18.48 -46.64,-27.58 -7.8,-9.14 -11.7,-18.82 -11.7,-29.07 0,-8.14 2.12,-15.55 6.31,-22.38 4.19,-6.84 11.36,-13.82 21.51,-20.99 -4.76,-5.25 -8.28,-10.4 -10.44,-15.5 -2.17,-5.05 -3.23,-10.73 -3.23,-17.04 0,-8.09 1.93,-15.5 5.73,-22.19 3.8,-6.74 8.71,-12.08 14.83,-16.12 6.11,-4.05 12.32,-6.98 18.58,-8.77 8.57,-2.45 19.54,-3.65 32.97,-3.65 17.91,0 31.34,1.63 40.19,4.86 8.86,3.27 16.13,8.28 21.76,15.02 5.63,6.78 10.06,15.78 13.24,26.95zm-107.63 55.65c-4.86,6.49 -7.32,11.74 -7.32,15.69 0,2.4 0.82,4.52 2.41,6.35 2.6,2.99 9.09,6.84 19.4,11.55l54.15 24.41c4.23,-6.4 6.35,-11.51 6.35,-15.36 0,-3.13 -1.25,-5.87 -3.8,-8.32 -3.66,-3.61 -14.49,-9.1 -32.49,-16.61 -18.01,-7.46 -30.91,-13.38 -38.7,-17.71z"/>
  <path class="fil0" d="M3673.55 1520.05l-54.01 6.31c-1.78,-5.44 -4.24,-9.29 -7.32,-11.6 -3.13,-2.27 -7.31,-3.42 -12.51,-3.42 -6.21,0 -10.78,1.2 -13.67,3.66 -2.89,2.45 -4.33,5.58 -4.33,9.34 0,3.17 1.29,6.01 3.94,8.47 4.67,4.33 15.69,9.62 32.97,15.93 24.7,9.05 41.88,17.91 51.56,26.52 9.58,8.76 14.34,20.22 14.34,34.32 0,8.28 -1.83,15.84 -5.49,22.67 -3.7,6.79 -9.62,13.72 -17.81,20.8 4.96,5.44 8.67,10.93 11.08,16.46 2.35,5.54 3.56,11.89 3.56,19.01 0,9.78 -2.51,18.92 -7.56,27.44 -5.01,8.57 -12.95,15.36 -23.73,20.51 -10.83,5.1 -25.37,7.65 -43.61,7.65 -11.65,0 -22,-1.01 -31.1,-2.98 -9.05,-1.98 -16.51,-4.67 -22.43,-8.19 -5.87,-3.46 -10.68,-7.46 -14.49,-12.03 -3.8,-4.57 -6.64,-8.95 -8.56,-13.14 -1.88,-4.19 -3.57,-9.82 -5.06,-16.99l53.14 -5.59c3.37,6.98 7.22,12.08 11.51,15.36 4.33,3.22 9.62,4.86 15.88,4.86 6.45,0 11.31,-1.49 14.54,-4.53 3.22,-2.98 4.86,-6.73 4.86,-11.11 0,-3.81 -1.92,-7.61 -5.78,-11.46 -5.34,-5.3 -19.68,-12.56 -43.03,-21.81 -23.3,-9.29 -38.84,-18.48 -46.64,-27.58 -7.8,-9.14 -11.7,-18.82 -11.7,-29.07 0,-8.14 2.12,-15.55 6.31,-22.38 4.19,-6.84 11.36,-13.82 21.51,-20.99 -4.76,-5.25 -8.28,-10.4 -10.44,-15.5 -2.17,-5.05 -3.23,-10.73 -3.23,-17.04 0,-8.09 1.93,-15.5 5.73,-22.19 3.8,-6.74 8.71,-12.08 14.83,-16.12 6.11,-4.05 12.32,-6.98 18.58,-8.77 8.57,-2.45 19.54,-3.65 32.97,-3.65 17.91,0 31.34,1.63 40.19,4.86 8.86,3.27 16.13,8.28 21.76,15.02 5.63,6.78 10.06,15.78 13.24,26.95zm-107.63 55.65c-4.86,6.49 -7.32,11.74 -7.32,15.69 0,2.4 0.82,4.52 2.41,6.35 2.6,2.99 9.09,6.84 19.4,11.55l54.15 24.41c4.23,-6.4 6.35,-11.51 6.35,-15.36 0,-3.13 -1.25,-5.87 -3.8,-8.32 -3.66,-3.61 -14.49,-9.1 -32.49,-16.61 -18.01,-7.46 -30.91,-13.38 -38.7,-17.71z"/>
  <path class="fil0" d="M4096.88 165.39l-54.01 6.31c-1.78,-5.44 -4.24,-9.29 -7.32,-11.6 -3.13,-2.27 -7.31,-3.42 -12.51,-3.42 -6.21,0 -10.78,1.2 -13.67,3.66 -2.89,2.45 -4.33,5.58 -4.33,9.34 0,3.17 1.29,6.01 3.94,8.47 4.67,4.33 15.69,9.62 32.97,15.93 24.7,9.05 41.88,17.91 51.56,26.52 9.58,8.76 14.34,20.22 14.34,34.32 0,8.28 -1.83,15.84 -5.49,22.67 -3.7,6.79 -9.62,13.72 -17.81,20.8 4.96,5.44 8.67,10.93 11.08,16.46 2.35,5.54 3.56,11.89 3.56,19.01 0,9.78 -2.51,18.92 -7.56,27.44 -5.01,8.57 -12.95,15.36 -23.73,20.51 -10.83,5.1 -25.37,7.65 -43.61,7.65 -11.65,0 -22,-1.01 -31.1,-2.98 -9.05,-1.98 -16.51,-4.67 -22.43,-8.19 -5.87,-3.46 -10.68,-7.46 -14.49,-12.03 -3.8,-4.57 -6.64,-8.95 -8.56,-13.14 -1.88,-4.19 -3.57,-9.82 -5.06,-16.99l53.14 -5.59c3.37,6.98 7.22,12.08 11.51,15.36 4.33,3.22 9.62,4.86 15.88,4.86 6.45,0 11.31,-1.49 14.54,-4.53 3.22,-2.98 4.86,-6.73 4.86,-11.11 0,-3.81 -1.92,-7.61 -5.78,-11.46 -5.34,-5.3 -19.68,-12.56 -43.03,-21.81 -23.3,-9.29 -38.84,-18.48 -46.64,-27.58 -7.8,-9.14 -11.7,-18.82 -11.7,-29.07 0,-8.14 2.12,-15.55 6.31,-22.38 4.19,-6.84 11.36,-13.82 21.51,-20.99 -4.76,-5.25 -8.28,-10.4 -10.44,-15.5 -2.17,-5.05 -3.23,-10.73 -3.23,-17.04 0,-8.09 1.93,-15.5 5.73,-22.19 3.8,-6.74 8.71,-12.08 14.83,-16.12 6.11,-4.05 12.32,-6.98 18.58,-8.77 8.57,-2.45 19.54,-3.65 32.97,-3.65 17.91,0 31.34,1.63 40.19,4.86 8.86,3.27 16.13,8.28 21.76,15.02 5.63,6.78 10.06,15.78 13.24,26.95zm-107.63 55.65c-4.86,6.49 -7.32,11.74 -7.32,15.69 0,2.4 0.82,4.52 2.41,6.35 2.6,2.99 9.09,6.84 19.4,11.55l54.15 24.41c4.23,-6.4 6.35,-11.51 6.35,-15.36 0,-3.13 -1.25,-5.87 -3.8,-8.32 -3.66,-3.61 -14.49,-9.1 -32.49,-16.61 -18.01,-7.46 -30.91,-13.38 -38.7,-17.71z"/>
  <path class="fil0" d="M4096.88 1520.05l-54.01 6.31c-1.78,-5.44 -4.24,-9.29 -7.32,-11.6 -3.13,-2.27 -7.31,-3.42 -12.51,-3.42 -6.21,0 -10.78,1.2 -13.67,3.66 -2.89,2.45 -4.33,5.58 -4.33,9.34 0,3.17 1.29,6.01 3.94,8.47 4.67,4.33 15.69,9.62 32.97,15.93 24.7,9.05 41.88,17.91 51.56,26.52 9.58,8.76 14.34,20.22 14.34,34.32 0,8.28 -1.83,15.84 -5.49,22.67 -3.7,6.79 -9.62,13.72 -17.81,20.8 4.96,5.44 8.67,10.93 11.08,16.46 2.35,5.54 3.56,11.89 3.56,19.01 0,9.78 -2.51,18.92 -7.56,27.44 -5.01,8.57 -12.95,15.36 -23.73,20.51 -10.83,5.1 -25.37,7.65 -43.61,7.65 -11.65,0 -22,-1.01 -31.1,-2.98 -9.05,-1.98 -16.51,-4.67 -22.43,-8.19 -5.87,-3.46 -10.68,-7.46 -14.49,-12.03 -3.8,-4.57 -6.64,-8.95 -8.56,-13.14 -1.88,-4.19 -3.57,-9.82 -5.06,-16.99l53.14 -5.59c3.37,6.98 7.22,12.08 11.51,15.36 4.33,3.22 9.62,4.86 15.88,4.86 6.45,0 11.31,-1.49 14.54,-4.53 3.22,-2.98 4.86,-6.73 4.86,-11.11 0,-3.81 -1.92,-7.61 -5.78,-11.46 -5.34,-5.3 -19.68,-12.56 -43.03,-21.81 -23.3,-9.29 -38.84,-18.48 -46.64,-27.58 -7.8,-9.14 -11.7,-18.82 -11.7,-29.07 0,-8.14 2.12,-15.55 6.31,-22.38 4.19,-6.84 11.36,-13.82 21.51,-20.99 -4.76,-5.25 -8.28,-10.4 -10.44,-15.5 -2.17,-5.05 -3.23,-10.73 -3.23,-17.04 0,-8.09 1.93,-15.5 5.73,-22.19 3.8,-6.74 8.71,-12.08 14.83,-16.12 6.11,-4.05 12.32,-6.98 18.58,-8.77 8.57,-2.45 19.54,-3.65 32.97,-3.65 17.91,0 31.34,1.63 40.19,4.86 8.86,3.27 16.13,8.28 21.76,15.02 5.63,6.78 10.06,15.78 13.24,26.95zm-107.63 55.65c-4.86,6.49 -7.32,11.74 -7.32,15.69 0,2.4 0.82,4.52 2.41,6.35 2.6,2.99 9.09,6.84 19.4,11.55l54.15 24.41c4.23,-6.4 6.35,-11.51 6.35,-15.36 0,-3.13 -1.25,-5.87 -3.8,-8.32 -3.66,-3.61 -14.49,-9.1 -32.49,-16.61 -18.01,-7.46 -30.91,-13.38 -38.7,-17.71z"/>
  <path class="fil1" d="M611.83 659.07l0 -447.71 90.67 0 0 447.71 -90.67 0zm169.98 -324.53l78.79 0 0 44.29c28.24,-34.08 61.9,-51.17 100.98,-51.17 20.74,0 38.77,4.27 53.99,12.82 15.32,8.55 27.82,21.47 37.51,38.77 14.28,-17.3 29.71,-30.22 46.17,-38.77 16.47,-8.55 34.08,-12.82 52.84,-12.82 23.76,0 43.88,4.79 60.45,14.49 16.46,9.69 28.76,23.86 36.89,42.62 5.94,13.76 8.86,36.16 8.86,67.12l0 207.18 -85.67 0 0 -185.19c0,-32.21 -2.92,-52.95 -8.86,-62.22 -7.92,-12.19 -20.22,-18.34 -36.68,-18.34 -11.99,0 -23.35,3.65 -33.98,10.94 -10.52,7.4 -18.23,18.13 -22.92,32.2 -4.69,14.18 -6.99,36.48 -6.99,67.01l0 155.6 -85.66 0 0 -177.59c0,-31.47 -1.57,-51.9 -4.59,-60.96 -3.02,-9.17 -7.71,-16.05 -14.17,-20.53 -6.36,-4.48 -15.11,-6.67 -26.06,-6.67 -13.23,0 -25.11,3.54 -35.64,10.63 -10.63,7.19 -18.13,17.4 -22.72,30.85 -4.58,13.44 -6.88,35.74 -6.88,66.8l0 157.47 -85.66 0 0 -324.53zm559.75 0l80.04 0 0 47.63c10.42,-16.26 24.39,-29.39 42.1,-39.5 17.72,-10.01 37.42,-15.01 58.99,-15.01 37.62,0 69.62,14.8 95.88,44.4 26.26,29.49 39.39,70.76 39.39,123.49 0,54.3 -13.23,96.4 -39.7,126.52 -26.48,30.12 -58.57,45.13 -96.3,45.13 -17.93,0 -34.18,-3.54 -48.77,-10.74 -14.49,-7.08 -29.91,-19.28 -45.96,-36.58l0 162.37 -85.67 0 0 -447.71zm84.42 157.26c0,36.58 7.19,63.57 21.67,81.08 14.38,17.41 32,26.16 52.63,26.16 19.91,0 36.48,-8.02 49.71,-24.07 13.24,-16.05 19.8,-42.31 19.8,-78.89 0,-34.19 -6.77,-59.51 -20.42,-76.08 -13.55,-16.57 -30.43,-24.81 -50.55,-24.81 -20.94,0 -38.35,8.13 -52.1,24.39 -13.87,16.26 -20.74,40.33 -20.74,72.22zm730.97 64.72l85.67 14.38c-10.95,31.37 -28.35,55.24 -52.01,71.7 -23.76,16.37 -53.46,24.6 -89,24.6 -56.38,0 -98.17,-18.45 -125.16,-55.34 -21.37,-29.6 -32.1,-66.91 -32.1,-112.03 0,-53.78 14.07,-95.99 42.1,-126.42 28.04,-30.53 63.58,-45.75 106.51,-45.75 48.15,0 86.19,15.95 114.12,47.84 27.83,31.89 41.17,80.76 39.91,146.63l-214.47 0c0.62,25.43 7.5,45.23 20.74,59.4 13.13,14.18 29.59,21.26 49.19,21.26 13.44,0 24.7,-3.64 33.76,-10.94 9.17,-7.29 16.05,-19.07 20.74,-35.33zm5 -86.92c-0.62,-24.9 -6.98,-43.87 -19.17,-56.79 -12.2,-13.03 -26.99,-19.49 -44.5,-19.49 -18.66,0 -34.08,6.88 -46.27,20.53 -12.2,13.65 -18.14,32.31 -17.93,55.75l127.87 0zm124.54 98.18l86.29 -13.14c3.65,16.58 11.05,29.19 22.31,37.73 11.15,8.65 26.88,12.92 47,12.92 22.2,0 38.87,-4.06 50.13,-12.19 7.5,-5.73 11.25,-13.44 11.25,-23.03 0,-6.46 -2.08,-11.88 -6.15,-16.15 -4.27,-4.07 -13.86,-7.93 -28.66,-11.36 -69.3,-15.32 -113.18,-29.29 -131.73,-41.9 -25.74,-17.61 -38.56,-42 -38.56,-73.16 0,-28.24 11.15,-51.9 33.35,-71.08 22.2,-19.17 56.59,-28.76 103.18,-28.76 44.39,0 77.43,7.3 99,21.78 21.58,14.59 36.48,36.06 44.61,64.51l-80.67 15.01c-3.44,-12.71 -10.11,-22.51 -19.8,-29.29 -9.69,-6.77 -23.55,-10.1 -41.58,-10.1 -22.72,0 -38.98,3.12 -48.88,9.48 -6.56,4.48 -9.79,10.32 -9.79,17.4 0,6.15 2.81,11.36 8.54,15.64 7.82,5.73 34.6,13.75 80.46,24.17 45.85,10.43 77.85,23.14 95.98,38.25 18.03,15.22 26.99,36.58 26.99,63.89 0,29.7 -12.4,55.34 -37.31,76.7 -24.8,21.36 -61.59,32.1 -110.36,32.1 -44.19,0 -79.21,-8.96 -105.05,-26.78 -25.74,-17.83 -42.63,-42 -50.55,-72.64zm347.77 0l86.29 -13.14c3.65,16.58 11.05,29.19 22.31,37.73 11.15,8.65 26.88,12.92 47,12.92 22.2,0 38.87,-4.06 50.13,-12.19 7.5,-5.73 11.25,-13.44 11.25,-23.03 0,-6.46 -2.08,-11.88 -6.15,-16.15 -4.27,-4.07 -13.86,-7.93 -28.66,-11.36 -69.3,-15.32 -113.18,-29.29 -131.73,-41.9 -25.74,-17.61 -38.56,-42 -38.56,-73.16 0,-28.24 11.15,-51.9 33.35,-71.08 22.2,-19.17 56.59,-28.76 103.18,-28.76 44.39,0 77.43,7.3 99,21.78 21.58,14.59 36.48,36.06 44.61,64.51l-80.67 15.01c-3.44,-12.71 -10.11,-22.51 -19.8,-29.29 -9.69,-6.77 -23.55,-10.1 -41.58,-10.1 -22.72,0 -38.98,3.12 -48.88,9.48 -6.56,4.48 -9.79,10.32 -9.79,17.4 0,6.15 2.81,11.36 8.54,15.64 7.82,5.73 34.6,13.75 80.46,24.17 45.85,10.43 77.85,23.14 95.98,38.25 18.03,15.22 26.99,36.58 26.99,63.89 0,29.7 -12.4,55.34 -37.31,76.7 -24.8,21.36 -61.59,32.1 -110.36,32.1 -44.19,0 -79.21,-8.96 -105.05,-26.78 -25.74,-17.83 -42.63,-42 -50.55,-72.64zm592.89 91.29l0 -48.56c-11.88,17.29 -27.41,31.05 -46.69,41.37 -19.28,10.21 -39.6,15.32 -60.97,15.32 -21.88,0 -41.47,-4.8 -58.77,-14.38 -17.41,-9.59 -29.91,-23.14 -37.63,-40.44 -7.81,-17.4 -11.67,-41.37 -11.67,-72.01l0 -205.83 85.67 0 0 149.45c0,45.75 1.56,73.68 4.79,83.99 3.13,10.32 8.86,18.56 17.3,24.5 8.34,6.04 18.97,9.06 31.89,9.06 14.7,0 27.83,-4.06 39.5,-12.09 11.67,-8.02 19.59,-18.03 23.87,-30.01 4.27,-11.99 6.46,-41.17 6.46,-87.75l0 -137.15 85.66 0 0 324.53 -79.41 0zm161.22 -324.53l78.79 0 0 44.29c28.24,-34.08 61.9,-51.17 100.98,-51.17 20.74,0 38.77,4.27 53.99,12.82 15.32,8.55 27.82,21.47 37.51,38.77 14.28,-17.3 29.71,-30.22 46.17,-38.77 16.47,-8.55 34.08,-12.82 52.84,-12.82 23.76,0 43.88,4.79 60.45,14.49 16.46,9.69 28.76,23.86 36.89,42.62 5.94,13.76 8.86,36.16 8.86,67.12l0 207.18 -85.67 0 0 -185.19c0,-32.21 -2.92,-52.95 -8.86,-62.22 -7.92,-12.19 -20.22,-18.34 -36.68,-18.34 -11.99,0 -23.35,3.65 -33.98,10.94 -10.52,7.4 -18.23,18.13 -22.92,32.2 -4.69,14.18 -6.99,36.48 -6.99,67.01l0 155.6 -85.66 0 0 -177.59c0,-31.47 -1.57,-51.9 -4.59,-60.96 -3.02,-9.17 -7.71,-16.05 -14.17,-20.53 -6.36,-4.48 -15.11,-6.67 -26.06,-6.67 -13.23,0 -25.11,3.54 -35.64,10.63 -10.63,7.19 -18.13,17.4 -22.72,30.85 -4.58,13.44 -6.88,35.74 -6.88,66.8l0 157.47 -85.66 0 0 -324.53zm-1580.44 324.53l-85.67 0 0 -324.53 79.41 0 0 46.06c13.66,-21.78 25.95,-36.06 36.9,-42.83 10.94,-6.77 23.34,-10.11 37.2,-10.11 19.59,0 38.46,5.42 56.59,16.15l-26.57 74.83c-14.49,-9.38 -27.93,-14.07 -40.34,-14.07 -12.09,0 -22.3,3.34 -30.64,9.9 -8.33,6.67 -14.9,18.55 -19.69,35.85 -4.8,17.3 -7.19,53.57 -7.19,108.7l0 100.05z"/>
  <path class="fil2" d="M2497.54 1159.97l-273.42 31.92c-9.01,-27.53 -21.44,-47.03 -37.04,-58.73 -15.84,-11.45 -37.04,-17.3 -63.36,-17.3 -31.43,0 -54.58,6.09 -69.2,18.52 -14.62,12.43 -21.93,28.27 -21.93,47.28 0,16.08 6.58,30.46 19.98,42.89 23.64,21.93 79.44,48.73 166.92,80.66 125.01,45.81 212.01,90.65 260.99,134.27 48.49,44.35 72.62,102.34 72.62,173.74 0,41.92 -9.26,80.18 -27.78,114.78 -18.77,34.36 -48.74,69.45 -90.17,105.27 25.1,27.54 43.87,55.32 56.05,83.34 11.94,28.03 18.03,60.19 18.03,96.26 0,49.46 -12.67,95.77 -38.25,138.9 -25.35,43.37 -65.56,77.73 -120.14,103.81 -54.83,25.83 -128.42,38.74 -220.78,38.74 -58.97,0 -111.36,-5.11 -157.42,-15.11 -45.81,-9.99 -83.58,-23.63 -113.56,-41.42 -29.73,-17.55 -54.1,-37.77 -73.35,-60.92 -19.25,-23.15 -33.63,-45.33 -43.37,-66.53 -9.51,-21.2 -18.04,-49.71 -25.59,-86.02l269.03 -28.27c17.06,35.34 36.55,61.17 58.24,77.74 21.93,16.33 48.74,24.61 80.42,24.61 32.65,0 57.26,-7.55 73.59,-22.91 16.33,-15.1 24.61,-34.11 24.61,-56.29 0,-19.25 -9.75,-38.5 -29.24,-57.99 -27.05,-26.81 -99.67,-63.61 -217.86,-110.39 -117.94,-47.03 -196.65,-93.58 -236.13,-139.64 -39.47,-46.3 -59.21,-95.28 -59.21,-147.18 0,-41.18 10.72,-78.71 31.92,-113.31 21.2,-34.61 57.51,-69.94 108.93,-106.25 -24.13,-26.56 -41.92,-52.64 -52.88,-78.47 -10.97,-25.58 -16.33,-54.34 -16.33,-86.26 0,-40.94 9.75,-78.47 29,-112.34 19.25,-34.12 44.11,-61.17 75.05,-81.64 30.95,-20.46 62.39,-35.33 94.07,-44.35 43.37,-12.42 98.93,-18.52 166.92,-18.52 90.65,0 158.64,8.29 203.48,24.62 44.84,16.57 81.63,41.91 110.14,76.03 28.51,34.36 50.93,79.92 67.02,136.46zm-544.88 281.7c-24.61,32.9 -37.04,59.46 -37.04,79.44 0,12.18 4.14,22.91 12.18,32.17 13.16,15.11 46.06,34.6 98.21,58.48l274.14 123.55c21.45,-32.41 32.17,-58.24 32.17,-77.74 0,-15.84 -6.34,-29.73 -19.25,-42.15 -18.52,-18.28 -73.35,-46.06 -164.49,-84.07 -91.14,-37.78 -156.45,-67.75 -195.92,-89.68z"/>
 </g>
</svg>
