<?xml version="1.0" encoding="UTF-8"?>
<!DOCTYPE svg PUBLIC "-//W3C//DTD SVG 1.1//EN" "http://www.w3.org/Graphics/SVG/1.1/DTD/svg11.dtd">
<!-- Creator: CorelDRAW -->
<svg xmlns="http://www.w3.org/2000/svg" xml:space="preserve" width="85.5132mm" height="18.6266mm" version="1.1" style="shape-rendering:geometricPrecision; text-rendering:geometricPrecision; image-rendering:optimizeQuality; fill-rule:evenodd; clip-rule:evenodd"
viewBox="0 0 8551.32 1862.66"
 xmlns:xlink="http://www.w3.org/1999/xlink"
 xmlns:xodm="http://www.corel.com/coreldraw/odm/2003">
 <defs>
  <style type="text/css">
   <![CDATA[
    .fil4 {fill:#FEFEFE}
    .fil1 {fill:#3274B9}
    .fil3 {fill:#393185}
    .fil2 {fill:#393185}
    .fil6 {fill:#FEFEFE;fill-rule:nonzero}
    .fil5 {fill:#FEFEFE;fill-rule:nonzero}
    .fil0 {fill:#393185;fill-rule:nonzero}
   ]]>
  </style>
 </defs>
 <g id="Ebene_x0020_1">
  <metadata id="CorelCorpID_0Corel-Layer"/>
  <path class="fil0" d="M7297.47 1632.9l149.82 0 -29.85 143.61c-17.68,11.33 -39.24,20.94 -64.91,28.85 -25.59,7.83 -51.65,11.79 -78.24,11.79 -41.34,0 -72.98,-9.31 -95,-28 -30.09,-25.51 -45.13,-62.5 -45.13,-110.89 0,-32.49 6.44,-63.66 19.31,-93.36 15.51,-35.83 37.45,-63.67 65.99,-83.37 28.46,-19.77 61.96,-29.62 100.5,-29.62 38.54,0 69.41,8.92 92.67,26.75 23.26,17.92 38.7,43.9 46.29,78.09l-63.74 7.29c-5.58,-18.76 -14.65,-32.95 -27.22,-42.49 -12.48,-9.54 -28.22,-14.27 -47.15,-14.27 -22.17,0 -42.49,5.82 -60.95,17.37 -18.53,11.55 -33.03,29.39 -43.5,53.58 -10.47,24.12 -15.67,50.56 -15.67,79.1 0,28.15 6.36,48.93 19.16,62.43 12.79,13.41 31.48,20.16 56.14,20.16 14.74,0 29.94,-2.09 45.44,-6.2 15.51,-4.19 28.93,-9.16 40.17,-14.89l10.39 -50.1 -86.15 0 11.63 -55.83zm225.43 -63.28l61.81 0 -5.67 28.92c23.97,-23.34 49.17,-34.97 75.53,-34.97 18.23,0 32.26,3.8 42.11,11.32 9.93,7.6 16.21,18.07 18.92,31.41 8.38,-12.18 20.32,-22.26 35.99,-30.48 15.66,-8.14 31.87,-12.25 48.69,-12.25 19.31,0 34.36,5.27 45.15,15.74 10.78,10.47 16.13,24.28 16.13,41.57 -0.08,8.3 -2.33,22.64 -6.75,43.04l-31.65 147.18 -65.14 0 31.33 -147.18c3.88,-18.46 5.89,-29.01 6.13,-31.49 0,-6.9 -2.02,-12.33 -6.13,-16.36 -4.03,-3.95 -10.16,-5.97 -18.22,-5.97 -16.44,0 -31.1,8.61 -43.97,25.9 -9.38,12.33 -17.37,34.28 -23.96,65.68l-22.88 109.42 -65.14 0 30.55 -146.33c3.49,-16.83 5.2,-27.76 5.2,-32.8 0,-6.36 -2.17,-11.63 -6.44,-15.74 -4.34,-4.11 -10.31,-6.13 -17.91,-6.13 -7.13,0 -14.5,2.17 -22.02,6.44 -7.6,4.26 -14.27,10.08 -19.93,17.6 -5.74,7.44 -10.63,17.06 -14.66,28.77 -1.94,5.5 -5.04,17.91 -9.38,37.22l-23.11 110.97 -65.14 0 50.56 -241.48zm363.16 241.48l69.79 -333.14 65.06 0 -23.8 110.74c12.02,-9.08 23.26,-15.51 33.65,-19.39 10.47,-3.8 21.87,-5.74 34.2,-5.74 25.51,0 45.99,8.53 61.42,25.67 15.35,17.06 23.03,41.95 23.03,74.68 0,22.02 -3.65,43.42 -10.86,64.21 -7.21,20.7 -16.83,37.61 -28.92,50.63 -12.1,12.95 -24.74,22.65 -38.08,28.93 -13.26,6.28 -27.22,9.46 -41.8,9.46 -34.66,0 -60.09,-15.05 -76.3,-45.06l-8.45 39.01 -58.94 0zm87.47 -98.1c0,16.37 4.58,29.7 13.81,39.94 9.22,10.24 20.08,15.35 32.57,15.35 10.93,0 21.4,-3.95 31.4,-11.94 9.93,-7.91 18.23,-20.63 24.89,-38.07 6.6,-17.37 9.93,-34.98 9.93,-52.74 0,-17.21 -4.42,-30.78 -13.34,-40.63 -8.92,-9.85 -19.69,-14.81 -32.33,-14.81 -16.44,0 -30.64,7.68 -42.5,22.95 -16.28,20.94 -24.43,47.62 -24.43,79.95zm428.45 -50.79l-129.27 0 -31.17 148.89 -68.48 0 69.79 -333.14 68.4 0 -26.83 128.42 129.27 0 26.91 -128.42 68.39 0 -69.71 333.14 -68.47 0 31.17 -148.89z"/>
  <polygon class="fil1" points="88.24,68.24 1368.95,68.24 1368.95,364.16 88.24,364.16 "/>
  <polygon class="fil2" points="2936.61,206.06 7429.58,206.06 7390.14,338.33 2900.82,338.33 "/>
  <polygon class="fil2" points="2815,1192.74 2882.36,953.93 3090.91,953.93 3134.39,826.56 2915.42,827.16 2983.45,624.08 3209.71,624.08 3254.42,493.45 2869.87,493.45 2630.07,1336.03 2971.05,1336.03 3016.46,1192.74 "/>
  <polygon class="fil2" points="4218.85,624.08 4259.28,494.52 3843.73,493.45 3806.75,624.08 4078.64,624.08 3646.82,1192.74 3601.04,1336.03 3995.96,1336.03 4041.9,1192.74 3824.13,1192.33 "/>
  <polygon class="fil2" points="3490.41,1040.27 3497.55,493.45 3360.39,493.45 3078.39,1336.03 3220.75,1336.03 3383.86,826.56 3360.66,1336.03 3514.4,1336.03 3775.15,493.45 3641.25,493.45 "/>
  <polygon class="fil2" points="4654.19,624.08 4694.2,493.45 4346.66,493.45 4078.87,1336.03 4442.96,1336.03 4488.88,1192.74 4259.1,1192.74 4330.33,953.93 4533.93,953.93 4575.26,826.56 4379.32,826.56 4448.77,624.08 "/>
  <polygon class="fil2" points="4703.55,1192.74 4927.97,493.45 4787.54,493.45 4532.81,1336.03 4905.11,1336.03 4948.43,1192.74 "/>
  <polygon class="fil2" points="5319.6,493.45 5175.98,493.45 4943.73,1336.03 5088,1336.03 5228.43,908.21 5258.31,1073.93 5408.25,915.76 5277.41,1336.03 5427.64,1336.03 5643.22,493.45 5523.72,493.45 5334.77,786.76 "/>
  <polygon class="fil3" points="6198.11,493.45 5954.44,1336.03 5820.51,1336.03 5881.05,1100.07 5743.29,1100.22 5673.55,1336.03 5532.15,1336.03 5793.41,493.45 "/>
  <polygon class="fil4" points="6018.23,647.76 5879.34,647.76 5780.89,953.93 5924.55,953.93 "/>
  <polygon class="fil2" points="6224.5,1336.03 6087.34,1336.03 6364.97,493.31 6495.69,493.31 6495.69,980.03 6647.35,493.31 6778.08,493.31 6521.69,1336.03 6364.93,1336.03 6384.52,852.69 "/>
  <polygon class="fil2" points="7053.75,493.45 6929.91,493.45 6645.79,1336.03 6779.69,1336.03 6949.51,839.63 6929.91,1336.03 7094.02,1336.03 7341.41,493.45 7202.63,493.45 7054.01,980.06 "/>
  <polygon class="fil2" points="2472.09,1466.66 2822.74,206.06 2639.66,206.06 2282.67,1368.68 2095.35,493.45 1969.25,493.45 1627.6,1470.24 1404.17,45.51 42.33,45.51 74.17,398.74 1232.48,398.74 1435.6,1816.41 1683.55,1816.41 1995.28,976.79 2175.31,1816.41 6944.61,1816.41 7057.69,1466.66 "/>
  <path class="fil5" d="M153.41 339.42l48.93 -233.57 63.12 0c17.56,0 28.82,0.28 33.71,0.82 9.68,0.92 18.38,2.88 25.99,5.87 7.61,2.99 14.52,7.12 20.77,12.51 6.25,5.38 11.63,11.79 16.15,19.35 4.51,7.56 7.99,16.26 10.44,26.04 2.44,9.84 3.69,20.61 3.69,32.3 0,25.17 -4.84,47.46 -14.46,66.98 -9.62,19.46 -21.75,34.96 -36.32,46.43 -11.2,8.92 -25.61,15.5 -43.27,19.74 -10.01,2.33 -25.39,3.53 -46.16,3.53l-82.59 0zm55.84 -37.51l24.52 0c17.72,0 30.55,-1.09 38.49,-3.27 7.99,-2.17 15.28,-6.25 21.86,-12.23 9.51,-8.59 17.5,-20.06 24.03,-34.41 6.52,-14.36 9.78,-31.27 9.78,-50.73 0,-16.58 -2.72,-29.03 -8.1,-37.41 -5.38,-8.31 -12.01,-13.86 -19.95,-16.63 -5.55,-1.9 -15.39,-2.88 -29.63,-2.88l-28 0 -33 157.56zm179.98 37.51l48.93 -233.57 47.95 0 -48.88 233.57 -48 0zm95.1 0l48.94 -233.57 172.89 0 -8.16 39.15 -124.94 0 -11.52 52.84 121.13 0 -8.15 39.15 -121.52 0 -13.81 63.28 135.65 0 -8.15 39.15 -182.36 0zm321.72 0l-48.01 0 40.72 -194.42 -68.55 0 7.82 -39.15 183.99 0 -7.83 39.15 -67.42 0 -40.72 194.42zm100.16 0l48.94 -233.57 172.89 0 -8.16 39.15 -124.94 0 -11.52 52.84 121.13 0 -8.15 39.15 -121.52 0 -13.81 63.28 135.65 0 -8.15 39.15 -182.36 0zm269.09 0l-48.01 0 48.93 -233.57 103.63 0c17.83,0 31.7,1.85 41.65,5.49 9.89,3.7 17.88,10.39 24.03,20.18 6.09,9.78 9.13,21.58 9.13,35.5 0,19.9 -5.92,36.26 -17.83,49.15 -11.85,12.94 -29.85,20.93 -53.93,23.97 6.14,5.55 11.9,12.83 17.34,21.86 10.71,18.27 22.67,44.09 35.83,77.42l-51.54 0c-4.14,-13.16 -12.29,-33.65 -24.41,-61.54 -6.58,-15.06 -13.6,-25.23 -21.05,-30.4 -4.56,-3.1 -12.55,-4.62 -23.92,-4.62l-19.62 0 -20.23 96.56zm27.51 -131.46l25.5 0c25.82,0 42.95,-1.52 51.38,-4.62 8.48,-3.1 15.06,-7.94 19.84,-14.57 4.79,-6.58 7.18,-13.54 7.18,-20.77 0,-8.54 -3.43,-14.9 -10.33,-19.2 -4.24,-2.55 -13.43,-3.8 -27.57,-3.8l-52.79 0 -13.21 62.96z"/>
  <g id="_2306103250144">
   <path class="fil6" d="M3197.98 1522.75l-38.77 144.42c-2.62,8.57 -3.66,18.61 -3.66,29.79 0,20.09 17.28,35.73 51.33,35.73 39.29,0 65.49,-18.62 78.05,-65.14l38.78 -144.8 75.42 0 -38.24 142.56c-20.43,75.95 -67.57,112.42 -163.44,112.42 -72.81,0 -117.34,-26.43 -117.34,-80.03 0,-10.81 2.1,-23.09 5.24,-34.99l37.2 -139.96 75.43 0z"/>
   <path class="fil6" d="M3819.36 1773.63l67.05 -250.88 88.53 0 46.63 95.66c14.15,32.01 23.58,58.07 31.95,85.61l1.58 0c1.57,-25.68 6.28,-53.23 16.23,-90.07l24.1 -91.2 70.19 0 -66.52 250.88 -78.06 0 -49.23 -100.13c-15.72,-33.87 -25.15,-56.58 -34.58,-87.47l-1.58 0.36c-4.18,24.21 -12.56,59.94 -23.03,99.39l-23.05 87.85 -70.21 0z"/>
   <path class="fil6" d="M4587.41 1773.63l67.05 -250.88 88.55 0 46.63 95.66c14.14,32.01 23.57,58.07 31.94,85.61l1.59 0c1.56,-25.68 6.28,-53.23 16.24,-90.07l24.07 -91.2 70.2 0 -66.51 250.88 -78.06 0 -49.25 -100.13c-15.7,-33.87 -25.16,-56.58 -34.58,-87.47l-1.58 0.36c-4.18,24.21 -12.56,59.94 -23.04,99.39l-23.05 87.85 -70.2 0z"/>
   <path class="fil6" d="M5452.92 1708.5l-41.9 65.13 -80.17 0 171.83 -250.88 96.92 0 41.38 250.88 -79.11 0 -7.32 -65.13 -101.63 0zm98.47 -40.95l0 0 -6.81 -53.98c-1.56,-13.78 -3.66,-33.87 -5.22,-49.14l-1.05 0c-8.92,15.27 -18.88,34.61 -28.3,49.14l-35.09 53.98 76.47 0z"/>
   <path class="fil6" d="M6222.56 1522.75l-38.78 144.42c-2.61,8.57 -3.66,18.61 -3.66,29.79 0,20.09 17.29,35.73 51.33,35.73 39.28,0 65.48,-18.62 78.06,-65.14l38.75 -144.8 75.45 0 -38.26 142.56c-20.41,75.95 -67.56,112.42 -163.43,112.42 -72.82,0 -117.33,-26.43 -117.33,-80.03 0,-10.81 2.08,-23.09 5.23,-34.99l37.18 -139.96 75.46 0z"/>
  </g>
 </g>
 <g id="Ebene_x0020_1_1">
  <metadata id="CorelCorpID_1Corel-Layer"/>
 </g>
</svg>
